/* XPM */
static char *d8d72563b15c47fee0a1a9fff09dfec9nk1gO5TbHcMxieFO[] = {
/* columns rows colors chars-per-pixel */
"90 90 138 2 ",
"   c None",
".  c #54090E",
"X  c #590A0E",
"o  c #5D110A",
"O  c #5A1F08",
"+  c #630B0F",
"@  c #671B07",
"#  c #691B07",
"$  c #60120A",
"%  c #7A1C0F",
"&  c #670B11",
"*  c #6A0B11",
"=  c #720B12",
"-  c #7C0D13",
";  c #7A1D11",
":  c #4E2205",
">  c #502106",
",  c #5C2507",
"<  c #532409",
"1  c #5A2209",
"2  c #632506",
"3  c #6D2603",
"4  c #612209",
"5  c #6D2F0B",
"6  c #742702",
"7  c #7A2604",
"8  c #752802",
"9  c #7F2009",
"0  c #7E360D",
"q  c #851E0A",
"w  c #8A1B0D",
"e  c #941D0F",
"r  c #850D15",
"t  c #8C0E15",
"y  c #960F16",
"u  c #9B0F16",
"i  c #970F19",
"p  c #861612",
"a  c #8D1314",
"s  c #911511",
"d  c #9C1017",
"f  c #951C11",
"g  c #9B1A13",
"h  c #9D101A",
"j  c #B20F1B",
"k  c #A41617",
"l  c #A11915",
"z  c #A31119",
"x  c #AC121B",
"c  c #A2181F",
"v  c #B4131E",
"b  c #BB131F",
"n  c #B01819",
"m  c #BC191D",
"M  c #822307",
"N  c #87210A",
"B  c #8A210B",
"V  c #A21920",
"C  c #B31620",
"Z  c #BF1420",
"A  c #B71823",
"S  c #B91B26",
"D  c #B33A3D",
"F  c #B9383F",
"G  c #C1141F",
"H  c #C71A1D",
"J  c #C21420",
"K  c #CA1522",
"L  c #CE1D29",
"P  c #D41623",
"I  c #DC1725",
"U  c #DF1825",
"Y  c #D31C28",
"T  c #E21725",
"R  c #E41826",
"E  c #EA1927",
"W  c #EE1928",
"Q  c #F21A28",
"!  c #FE1C2B",
"~  c #CC333C",
"^  c #FE202F",
"/  c #E72C39",
"(  c #F02130",
")  c #FD2F3D",
"_  c #FF303D",
"`  c #864635",
"'  c #8D4436",
"]  c #A2413B",
"[  c #CA3A44",
"{  c #FF3644",
"}  c #FF3D4A",
"|  c #FF4450",
" . c #FF4D59",
".. c #FF515C",
"X. c #D85B63",
"o. c #FE5B66",
"O. c #FF5E69",
"+. c #E1686F",
"@. c #FF606A",
"#. c #E76E76",
"$. c #EA6E76",
"%. c #F46E77",
"&. c #FF6D77",
"*. c #FF6E78",
"=. c #E87078",
"-. c #EB7B82",
";. c #EA7A81",
":. c #EF7A82",
">. c #EF7B83",
",. c #EB7C82",
"<. c #F07C83",
"1. c #FB7B83",
"2. c #FF7E86",
"3. c #FF7F88",
"4. c #FF8088",
"5. c #FF858D",
"6. c #FF868E",
"7. c #FF868F",
"8. c #FB8E96",
"9. c #F69196",
"0. c #F79197",
"q. c #F99097",
"w. c #F89197",
"e. c #FA9097",
"r. c #FB9097",
"t. c #FB9098",
"y. c #FA9198",
"u. c #FF9299",
"i. c #FF939B",
"p. c #FF949B",
"a. c #FF949C",
"s. c #FF959C",
"d. c #FF969D",
"f. c #FF979D",
"g. c #FF979E",
"h. c #FF989F",
"j. c #FF99A0",
"k. c #FF9AA1",
/* pixels */
"                                                                                                                                                                                    ",
"                                                                                                                                                                                    ",
"                                                                                                                                                                                    ",
"                                                                                                                                                                                    ",
"                                                                                                                                                                                    ",
"                                                                                                                                                                                    ",
"                                                                                                      8 8 8 8 8                                                                     ",
"                                                                                                      8 8 8 8 8                                                                     ",
"                                                                                                      8 8 8 8 8                                                                     ",
"                                                                                                      8 8 8 8 8                                                                     ",
"                                                                                                      6 6 6 6 6                                                                     ",
"                                                                                          0 0 0 0 0 5 , , , , ,                                                                     ",
"                                                                                          0 0 0 0 0 5 < < < < <                                                                     ",
"                                                                                          0 0 0 0 0 5 < < < < <                                                                     ",
"                                                                                          0 0 0 0 0 5 < < < < <                                                                     ",
"                                                                                          0 0 0 0 0 5 < < < < <                                                                     ",
"                                                                                          0 0 0 0 0 5 < < < < <                                                                     ",
"                                                                                          8 8 8 8 8 8                                                                               ",
"                                                                                          6 6 6 6 6 6                                                                               ",
"                                                                                          8 8 8 8 8 8                                                                               ",
"                                                                                          8 8 8 8 8 8                                                                               ",
"                                                                                          8 8 8 8 8 8                                                                               ",
"                                                          d d d d d d d d u d q 8 6 8   6 2 2 2 2 2 3 6 8 8 8 8 8 8 8 8 8                                                           ",
"                                                        d d d d d d d d d u d q 8 6 8 8 6 < < < < < 2 6 8 8 8 8 8 8 8 8 8 8                                                         ",
"                                                        d d d d d d d d d u d q 8 6 8 8 6 1 < < < < 2 6 8 8 8 8 8 8 8 8 8 8                                                         ",
"                                                        d d d d d d d d d u d q 6 6 8 8 3 1 < < < < 2 6 8 8 8 8 8 8 8 8 8 8                                                         ",
"                                                        u u u u u u u d d u d q 8 8 8 8 6 < < < < < 2 8 8 8 8 8 8 8 8 8 8 8                                                         ",
"                                                        c V V c V c d d d d d q 6 6 6 6 3 1 1 1 1 1 2 7 7 7 7 7 7 7 7 7 7 7                                                         ",
"                                  d d d d d x v v v v S +.-.-.-.,.X.C x x x x % , , , , 4 p a a a a k H H H H H n k k k k g 7 8 8 8 8 8 8 8 8 8 8                                   ",
"                                  d d d d d x v v v v S <.j.g.g.j.=.A v v v v ; < < < < 1 s u u u u v I I I I I J v v v v k 7 8 8 8 8 8 8 8 8 8 8                                   ",
"                                  d d d d d x v v v v S :.g.g.g.h.#.A v v v v ; < < < < 1 s u d d u v I I I I I J v v v v k 7 8 8 8 8 8 8 8 8 8 8                                   ",
"                                  d d d d d x v v v v S :.g.g.g.h.#.A v v v v ; < < < < 1 s u d d u v I I I I I J v v v v k 7 8 8 8 8 8 8 8 8 8 8                                   ",
"                                  u u u u u z v v v v S :.h.g.g.j.#.C j v v v % : > > > O s u u u u v I I I I I b v v v v k 7 6 6 6 6 8 6 8 8 8 8                                   ",
"                                  z z z z z v K K K K L %.6.6.6.6.$.[ [ [ [ [ ] ` ` ` ` ' D F F F F ~ / / / / / Y K K K K m B N N N N 7 8 6 8 8 8                                   ",
"                      d d d d u z v v v v v P ! ! ! ! ^ ..@.@.@.O.*.8.t.w.w.t.w.9.9.9.9.9.w.w.w.8.t.1.o.o.o.o.o.) ! ! ! ! E v v v v v e 8 6 8 8 8 8 8 8 8 8 8                       ",
"                      d d d d u z v v v v v I ! ! ! ! ^ ..O.O.O.o.*.p.g.g.g.g.g.g.g.g.g.g.g.g.g.g.g.4.O.O.O.O.o._ ! ! ! ! W b v v v v f 8 6 8 8 8 8 8 8 8 8 8                       ",
"                      d d d d u z v v v v v I ! ! ! ! ^ ..O.O.O.O.*.u.g.g.g.g.g.g.g.g.g.g.g.g.g.g.g.3.O.O.O.O.o._ ! ! ! ! W b v v v v f 8 6 8 8 8 8 8 8 8 8 8                       ",
"                      d d d d u z v v v v v I ! ! ! ! ^ ..O.O.O.O.*.p.g.g.g.g.g.g.g.g.g.g.g.g.g.g.g.3.O.O.O.O.o._ ! ! ! ! W b v v v v e 8 8 8 8 8 8 8 8 8 8 8                       ",
"                      d d d d u h v v v v v I ! ! ! ! ^  .O.O.O.o.&.u.g.p.p.p.p.p.p.p.p.p.p.p.p.p.g.2.O.O.O.O.o.) ! ! ! ! W b v v v v f 8 6 6 6 6 6 8 8 8 8 8                       ",
"                      d d d d u h v v v v v I ! ! ! ! ! _ { { { { }  . . . . . . . . . . . . . . . .| { { { { { ( E E E E E T U U U T m g g g g f 7 8 8 8 8 8                       ",
"                      d d d d u z v v v v v I ! ! ! ! ! ! ! ! ! ! ! ! ! ! ! ! ! ! ! ! ! ! ! ! ! ! ! ! ! ! ! ! ! R I I I I R ! ! ! ! ! I v v v v v M 8 8 8 8 8                       ",
"                      d d d d u z v v v v v I ! ! ! ! ! ! ! ! ! ! ! ! ! ! ! ! ! ! ! ! ! ! ! ! ! ! ! ! ! ! ! ! ! R I I I I T ! ! ! ! ! I v v v v x M 8 8 8 8 8                       ",
"                      d d d d u z v v v v v I ! ! ! ! ! ! ! ! ! ! ! ! ! ! ! ! ! ! ! ! ! ! ! ! ! ! ! ! ! ! ! ! ! R I I I I T ! ! ! ! ! I v v v v x M 8 8 8 8 8                       ",
"                      d d d d u z v v v v v I ! ! ! ! ! ! ! ! ! ! ! ! ! ! ! ! ! ! ! ! ! ! ! ! ! ! ! ! ! ! ! ! ! R I I I I T ! ! ! ! ! I v v v v x M 8 8 8 8 8                       ",
"                      d d d d u z v v v v v P ! ! ! ! ! ! ! ! ! ! ! ! ! ! ! ! ! ! ! ! ! ! ! ! ! ! ! ! ! ! ! ! ! R I I I I T ! ! ! ! ! I b b b b v 9 3 6 6 6 6                       ",
"                      d d d d u z v v v v v K T T T T T ! ! ! ! ! Q T T T T T Q ! ! ! ! ! R T T T T T T T T T T I I I I I T ! ! ! ! ! E P P P I K = X X X X X                       ",
"                      d d d d u z v v v v v K I I I I I ! ! ! ! ! Q I I I I I Q ! ! ! ! ! T I I I I I I I I I I I I I I I T ! ! ! ! ! W I I I I P = . . . . .                       ",
"                      d d d d u z v v v v v K I I I I I ! ! ! ! ! Q I I I I I Q ! ! ! ! ! T I I I I I I I I I I I I I I I T ! ! ! ! ! W I I I I P = . . . . .                       ",
"                      d d d d u z v v v v v K I I I I I ! ! ! ! ! Q I I I I I Q ! ! ! ! ! T I I I I I I I I I I I I I I I T ! ! ! ! ! W I I I I P = . . . . .                       ",
"                      u u u u u z v v v v v K I I I I T ! ! ! ! ! Q I I I I I Q ! ! ! ! ! T I I I I I I I I I I I I I I I R ! ! ! ! ! W I I I I P = . . . . .                       ",
"                      w w w w w f v v v v v J K K K K K E Q Q Q Q E I I I I I I U U U T I K K K K K P I I I I I P K K K K P ! ! ! ! ! W I I I I P = . . . . .                       ",
"                      6 6 6 6 8 M x v v v v v v v v v v P I I I I I I I I I I J v v v v v v v v v v J I I I I I J v v v v J ! ! ! ! ! W I I I I P = . . . . .                       ",
"                      8 8 8 8 8 M x v v v v v v v v v v P I I I I I I I I I I J v v v v v v v v v v J I I I I I J v v v v J ! ! ! ! ! W I I I I P = . . . . .                       ",
"                      8 8 8 8 8 M x v v v v v v v v v v P I I I I I I I I I I J v v v v v v v v v v J I I I I I J v v v v J ! ! ! ! ! W I I I I P = . . . . .                       ",
"                      8 8 8 8 8 M x v v v v v v v v v v P I I I I I I I I I I J v v v v v v v v v v J I I I I I J v v v v J ! ! ! ! ! W I I I I P = . . . . .                       ",
"                      8 8 8 8 8 M x v v v v v v v v v v P I I I I I I I I I I J v v v v v v v v v v J I I I I I b v v v v J ! ! ! ! ! E I I I I P = . . . . .                       ",
"                      8 8 8 8 8 M x v v v v v v v v v v b J J J J J J J J J G b v v v v v K P P P P K J J J J b v v v v v J ! ! ! ! ! I b J J J b * . . . . .                       ",
"                      8 8 8 8 8 M x v v v v v v v v v v v v v v v v v v v v v v v v v v b I I I I I K v v v v v v v v v v J ! ! ! ! ! I v v v v x & . . . . .                       ",
"                      8 8 8 8 8 M x v v v v v v v v v v v v v v v v v v v v v v v v v v b P I I I I K v v v v v v v v v v J ! ! ! ! ! I v v v v x & . . . . .                       ",
"                      8 8 8 8 8 M x v v v v v v v v v v v v v v v v v v v v v v v v v v b P I I I I K v v v v v v v v v v J ! ! ! ! ! I v v v v x & . . . . .                       ",
"                      8 8 8 8 8 M v v v v v v v v v v v v v v v v v v v v v v v v v v v b I I I I I K v v v v v v v v v v J ! ! ! ! ! I v v v v x & . . . . .                       ",
"                      8 8 8 8 8 M k k k k k x v v v v v v v v v v v b b b b b v v v v v b P P P P P J v v v v v b b b b b J E W W W Q J h z z z h & . . . . .                       ",
"                                  7 7 7 7 7 f v v v v v v v v v v b I I I I I J v v v v v v v v v v v v v v v v K I I I I P b b b b b t X X X X X                                   ",
"                                  8 8 8 8 6 e v v v v v v v v v v J I I I I I J v v v v v v v v v v v v v v v v P I I I I P v v v v v r . . . . .                                   ",
"                                  8 8 8 6 8 f v v v v v v v v v v J I I I I I J v v v v v v v v v v v v v v v v P I I I I P v v v v v r . . . . .                                   ",
"                                  8 8 8 6 8 f v v v v v v v v v v J I I I I I J v v v v v v v v v v v v v v v v P I I I I P v v v v v r . . . . .                                   ",
"                                  8 8 8 6 8 f v v v v v v v v v v J I I I I I J v v v v v v v v v v v v v v v v P I I I I P v v v v v r . . . . .                                   ",
"                                  8 8 8 6 8 w x z x z x v v v v v b J K K K K b v v v v v J K K K K K K K K K K K K K K K G x z x z x - . . . . .                                   ",
"                                  8 8 8 6 8 w u d u u d x v v v v v v v v v v v v v v v b I I I I I I I I I I I Z v v v v x d u u u u - . . . . .                                   ",
"                                  8 8 8 6 8 w u d d d d x v v v v v v v v v v v v v v v b P I I I I I I I I I I J v v v v x d d d d u - . . . . .                                   ",
"                                  8 8 8 6 8 w u d d d d x v v v v v v v v v v v v v v v b P I I I I I I I I I I J v v v v x d d d d u - . . . . .                                   ",
"                                  8 8 8 6 8 w u d d d d x v v v v v v v v v v v v v v v b P I I I I I I I I I I J v v v v x d d d d d - . . . . .                                   ",
"                                  8 8 8 6 8 q y y y y u x v v v v v v v v v v v v v v v v P I I I I I I I I I I b v v v v x u y y y y - . . . . .                                   ",
"                                            + + + + + & y z z z z z v v v v v x z z z h z x x x x x v b b b b b x z z z z y & + + + + +                                             ",
"                                              . . . . X t d u u u z v v v v v z u u u u u u u u u u z v v v v v z u u u d t X . . . .                                               ",
"                                            . . . . . X t d d d u z v v v v v z u d d d d d d d d u z v v v v v z u d d d t X . . . . .                                             ",
"                                            . . . . . X t d d d u z v v v v v z u d d d d d d d d u z v v v v v z u d d d t X . . . . .                                             ",
"                                            . . . . . X t d d d d z v v v v v z u u u u u u u u u u z v v v v v z d d d d t X . . . . .                                             ",
"                                              . . . . X - r r r r a g k k k k f s s a s s s s s s s s i i i i i t r r r r - X . . . .                                               ",
"                                                        . . . . . $ 6 6 6 6 6 6 6 6 6 6 6 6 6 6 6 6 # . . . . X . . . . . .                                                         ",
"                                                        . . . . . o 6 8 8 8 8 8 8 8 8 8 8 8 8 8 8 8 @ . . . . . . . . . . .                                                         ",
"                                                        . . . . . o 6 8 8 8 8 8 8 8 8 8 8 8 8 8 6 8 @ . . . . . . . . . . .                                                         ",
"                                                        . . . . . o 6 8 8 8 8 8 8 8 8 8 8 8 8 8 6 8 @ . . . . . . . . . . .                                                         ",
"                                                        . . . . . o 6 8 8 8 8 8 8 8 8 8 8 8 8 8 6 8 @ . . . . . . . . . . .                                                         ",
"                                                                                                                                                                                    ",
"                                                                                                                                                                                    ",
"                                                                                                                                                                                    ",
"                                                                                                                                                                                    ",
"                                                                                                                                                                                    ",
"                                                                                                                                                                                    "
};
