/* XPM */
static char *_861b0eb90844724f684188dc8b366af1d4QkXgwhgtv1abF[] = {
/* columns rows colors chars-per-pixel */
"30 30 3 1 ",
"  c black",
". c #D32A2A",
"X c #6DB90A",
/* pixels */
"                              ",
" .............. XX........... ",
" ..............XXXXX......... ",
" ...............XXXXX........ ",
" ...............XXXXXX....... ",
" ................XXXXX....... ",
" ................XXXXX....... ",
" .................XXXX....... ",
" ..................XX........ ",
" ............................ ",
" ............................ ",
" ............................ ",
" ............................ ",
" ............................ ",
" ............................ ",
" ............................ ",
" ............................ ",
" ............................ ",
" ............................ ",
" ............................ ",
" ............................ ",
" ............................ ",
" ............................ ",
" ............................ ",
" ............................ ",
" ............................ ",
" ............................ ",
" ............................ ",
" ............................ ",
"                              "
};
