/* XPM */
static char *exit1714838484[] = {
/* columns rows colors chars-per-pixel */
"64 64 49 1 ",
"  c #150046",
". c #190047",
"X c #170049",
"o c #1D014D",
"O c #1F0250",
"+ c #1F0950",
"@ c #20004F",
"# c #240353",
"$ c #290456",
"% c #250956",
"& c #290957",
"* c #270558",
"= c #2A0659",
"- c #270958",
"; c #2C0A5B",
": c #32065D",
"> c #310B5E",
", c #2E115E",
"< c #31105E",
"1 c #2F0E60",
"2 c #310760",
"3 c #3E0764",
"4 c #330E61",
"5 c #3A0E64",
"6 c #2F1160",
"7 c #351263",
"8 c #391366",
"9 c #3B1967",
"0 c #371468",
"q c #3C1669",
"w c #371A69",
"e c #3D1A6B",
"r c #3F1D71",
"t c #41166B",
"y c #411B6E",
"u c #441D71",
"i c #4B1E75",
"p c #40206F",
"a c #452173",
"s c #4A2376",
"d c #4C2679",
"f c #4B287A",
"g c #53277E",
"h c #542E82",
"j c #5B2882",
"k c #553082",
"l c #5F3589",
"z c #62378D",
"x c #704499",
/* pixels */
";OO#;84=$;47;#o#-41;4p6%OoO;5>:>;>;;-#*-;4;0p6%.o$7452$$<;%#.o;;",
"+o%77q4:$$4e0#oo%;-;;w-Oo%;4>5:;;>e7#oo#$;=40-oo#4525:$&7e<###%=",
"oO;07;;:$#;07-%#O%#=**#O#;7::>;;;;e7*#Oo#%%=%#o@155=;=#%,p7-*###",
"#=47;@#*#.#=;7,#oo#%%o#O=7q;##@@@o%>7;##o##@@o@;502*###o@;77;#o#",
":tt=#oo##OOo%10,%O@O#o;>q8;@####OOo%774-oo#@@$4e7=##@#O.Xo%44;#O",
"5y:$@@#o#%#oO-674%%#%#78t4#@@###OO##%;4;@%###;8q:###@@##oO#-67-%",
"8:=@@@######O#%;7=;-%-4q:$##@#$=-%##o#>7=7>=#58:$#@#@@&*#oo#-07-",
":$###%%%==;=%#o%%%=%##$:=#####$;;;$%@#$;-;#@%>:=#@@@&$=;;-#o#==%",
"$#@o+%%;7qt>%@o@%==*#O%######*;8tt-#o#%-*;;#%==#@@@o&75te=Ooo#$=",
":$#OOo#:qui>#@o%--;;%%=;$##O#*4quu=#o#=;==;O%42=#ooo&7tyr=###=;;",
"54%Ooo@;88>:%%%&=*-=-%;q;%#oO%;485:-##**#7f,#;8;#@@@#>t525;*#-==",
"487;#O#:::58;###%**OOO$775-@#$;;>87-##***;;o#;47<#@@#;:te7-##**#",
";4eq;%$=>8te,oo###OOooo;7te;#$;:8y9&@###**#oXO;787-#$:4ys7*#####",
"@;qe9>$:8tq;..#<7##-&#@#;que;%:qt8;@@$16**;;OX#>qeq;=>ty8$oO101#",
"o%4qt8:>tt:@oo,ee&#<7<%@#;8e4=1qq-%o#>q0=;77;o#;8et>:8t8$@o#0r0#",
"$#$;8<;><;%oo;wa9#%,<9;###;71-67;#o@;9q7*;170;%$;>8>>4>=@o#1qr1#",
";=o@;:$:;###$7p,%+oO;77,%O%-*%;-#%#;7e<%@#$:qe2=@#$=;;$##$:8q1#o",
"y4#@###%#o#;><,%  o.#,qq;###%-*#@@;77;&o@=#$qyq-@#####Oo$274,#oO",
"fy>%o#=%Oo=78;#X   o#;wae;#o#=#o#-74;%o.@@$$:ua4##$==#O#;q8$ooX.",
"04;-=;4=O#70:# .++ .#;;44:;$;4*%;74=%%.o@@@::tq:%$-41#O;04;#oXXX",
";;=$#%4=O#67:#.o++++;4:==$$#>>$:;:q$@@ .@>si34:=##%1;%O-54=oXXoX",
"2;$###-%#O-4;#oX +%,7444:###:$###uf;%% #@yxg35;$##$--%O#;5=#Xo++",
"q7-####%#O#%###oo+7pq,4e:%@%;###%ha#@@&&&szi3tq2$#@%=%O####$%%+-",
",-####;:;##-;-%##%7peq0;$@#:tq>$$-;%@@$;>tt<eq6;$$$::;$##=###%%6",
"-Oo#;;:4;=->4;#o#;77qpw%#o%;85;$==6;%#@=4458tq-%%$>>54=#;;*##%;4",
"oO--ee-:-%%qe=#O.;%%47-o.#;84::&=4aq%o.#=#-77*oo#<t:>4$%1e4#oo-;",
"#%%;:;%*#OO;4;*$%%%$-#o#=::;;#O###77;=##OO-;%@#=:>:$;=#o;w6=##**",
"@-45%#OOo.XO%74-=O#%#o#%4t8;#ooO#O%:88:%##+Oo#$4q4;#####%;1;;=%o",
";tt>####+OOoo=8q4#%*##$:qq:#.@##o@@$4u78###o#;4tt:@@##%#o##;76-o",
">q8#@#O#%###O%-7q%-;=*:q8;$##o#%%=#=thqe;;==&4t5;$@##%%#O@o*77;*",
"85;o.O#%-;==#O#=7;;;=%;q4;##o##====#$7;7;;;#$48;@o##%=;;%#@#=;-;",
"=;$#o##%*;11=#o#*%==#o#;$#@oo#=;>>$###o$$$$@#$$###@##;244:#o##%=",
"#$=*Oo#%>8y>%##$==;-$##=##o#@#:8ti;#@o%;;;;$#$#**#O#%:qtt$oo%;;;",
"$==%o.#$>ty8=#@$-#==&%=;:,%#o#;8tt>&&o-:42;##$;-%OoO$:tyt$##==;2",
"004%o#%#=>57<=#$;$#=$&:5uh;##$$:<8<<;#-;=;*#@:07=###$:5t8>$#**##",
"->87;##$:5t97=#$2*####%:uht:$;::5i9>###=**#o.%7uq:##=:5tt5%#**##",
"#%4ut<;:5ttt>#@;2=###@##;8iq4:45td8%##*;-%##.@;uat4;45ugt;#o#;;*",
"##=8pt>;8it;#@%>r1**;;##;8di7=>tue&#o#7q;%#=%##2eaa::8zz8#o#204-",
";##=8e<;<t>@@#-7u2*$8q:$##4rq;2qq;o#*1ee-%;04:##;qu4:5du$@O;qe1*",
";;#@;<::>;#@$;700=#$8q4;#$$4572;$##%17w7##;0qq$##;4:;$;=##-7e0-#",
"87=@###%*#o#:507--##$48q2*###$=##$#>q0;#oO#=quq=#$#$$###$;177#O@",
"ut4=###$%OO;74=#ooo##:8a8;###$####>54;+Xooo#4iu4====$#oO-0w7*o@o",
"8q8-##=;=**75;@.XXoo$=4e5;**;:=-$:5:%oXXOo##=5q;$#$;;$#*47-####o",
";>4$#%76;-;52*#ooXoO$:422$##27:;:>t>#.XoO##$=24;$$;221-;74=o7e@o",
";4:###*-#O%48;#%oo#%2242;=##=;##%-52=ooo+%;4422:##=;;=%=60>#<p@%",
"404$O##%#o%-;;#@oo,e854r8;###=###$;=*##O%7eq558;#@#%%%O#%%##o#@,",
"704###%=%####%@o%%7fqq5q1*o####%##$%%###;euqqt7=#@#%-%#%=##o@%;8",
"7-%o#;07>;-&;##o$:452ee=#Oo=477:;=4;##$;174>ue;#o%;474:487$##$:>",
":#.O-477-%%4q4=@#;;;:8q#O#=774;=%#eq&##$>>#:q5%#%;07>;;:8a>#$#:=",
"=##-14;;%#@:q8:%#O##1;;#*-772%%##%q8>$##:=$$==$;247--$#$4t5;$###",
"o#;00;###o##$::==o##=O#O=;0;%@OOO#%;77$@@@%$$#%:4;%####@#;>>:$#%",
"o;q0=o#####o#=:t;#O##Oo#qe4%o##--#O#-;7>@%@8g8>y7%###@@@##;58:$#",
"-0e7*oo#@@#@$@$<8%#;#*#4q7%oOO#-%#O##;77@;;<s54t:#O########=<8:%",
">77;####%&$:$@@$82:7;1;77-Oo####*=###;>7::>>=;4>#.OO##;;:$@#>8<>",
"%==#####&;<>&#@@;$#;*=#;;*####*;1;;;#@#&:;:$@$:%#o##*;78:=#$=;:=",
"##%o####>0y<&##$$;;:$;###*#O5e46qe7=@o#;>::###=@##OO%5qeq$@%;=$=",
";;;#o@##<qre-#-%-;$:$$$=%###=-;0pa7#oo*;:4;##$>;##oo-7ee8%.#-;;;",
"-7w1oo*$=721;-%$$#####%4q8:$##=44;>-##*=#$$##>q7=#*##-:57&##%$##",
"+%777;$==;euq;#o#####oo=>q8-#$;45eq<###*#$#@@$8et7##$;=7y<&@####",
"@#;7a5:$45iu7-O#$%####o#;eu5;==4eaq;##=2$$##@@;:at;$;45ep<#@#*#*",
"@@%7au7#4eu8;%#;7>%%;>$o$qaae:#qst;##$7e=$$-$##=eue;;etq4%o#10=*",
"<;#$;e715qq#@#$7eq$#7q7;$$;qt42qy>@@#;et;=;88;#$%8fq48e8$o#;0e4$",
"e;###7;;;:;@@;4q7>##-882;##;8;24>=##;7q7==;487:-=;ua::>$@#-7w0;O",
"te:%o#$$=*###88q;@@##4tq4;#$;#$##%=:41;-%%##4tq#=$uf;;$##$107;OO"
};
