/* XPM */
static char *a9983cc78b4b44bec1e4309a8f5e7b281jBMQG1071xu2QEc[] = {
/* columns rows colors chars-per-pixel */
"90 90 121 2 ",
"   c #0F0040",
".  c #150045",
"X  c #190046",
"o  c #160049",
"O  c #1D004D",
"+  c #1C084D",
"@  c #1E0151",
"#  c #1E0851",
"$  c #21004E",
"%  c #29004F",
"&  c #23084F",
"*  c #240253",
"=  c #290356",
"-  c #240A55",
";  c #290956",
":  c #260359",
">  c #2B0659",
",  c #260958",
"<  c #2C0A5C",
"1  c #310857",
"2  c #31055B",
"3  c #38035F",
"4  c #310B5E",
"5  c #261257",
"6  c #271358",
"7  c #2E125D",
"8  c #31115E",
"9  c #2F0760",
"0  c #2E0C61",
"q  c #320661",
"w  c #3E0764",
"e  c #330D61",
"r  c #360C65",
"t  c #350F64",
"y  c #380E62",
"u  c #3A0D64",
"i  c #3B0F64",
"p  c #380D66",
"a  c #370F68",
"s  c #3A0F68",
"d  c #3B0F69",
"f  c #2A1260",
"g  c #2E1362",
"h  c #321162",
"j  c #331263",
"k  c #321363",
"l  c #361063",
"z  c #371562",
"x  c #371164",
"c  c #311464",
"v  c #351465",
"b  c #341565",
"n  c #351666",
"m  c #381164",
"M  c #391366",
"N  c #3C1266",
"B  c #3B1467",
"V  c #361864",
"C  c #3A1966",
"Z  c #361469",
"A  c #3B1269",
"S  c #391668",
"D  c #3E1768",
"F  c #3F146E",
"G  c #371968",
"H  c #391869",
"J  c #3B186A",
"K  c #3C196B",
"L  c #3B1C6A",
"P  c #3C1B6C",
"I  c #3D1C6D",
"U  c #3F1D71",
"Y  c #3E226E",
"T  c #3E2170",
"R  c #410867",
"E  c #440F6B",
"W  c #42156B",
"Q  c #40196C",
"!  c #401A6D",
"~  c #421A6E",
"^  c #461A6F",
"/  c #48186E",
"(  c #4B1670",
")  c #441D70",
"_  c #451E71",
"`  c #441D72",
"'  c #491D72",
"]  c #471F78",
"[  c #531E78",
"{  c #432271",
"}  c #422172",
"|  c #452273",
" . c #452475",
".. c #4B2175",
"X. c #4A2276",
"o. c #452974",
"O. c #4B2B77",
"+. c #472478",
"@. c #4B2479",
"#. c #482778",
"$. c #482979",
"%. c #4D2A7B",
"&. c #4D2C7D",
"*. c #52267D",
"=. c #512A7E",
"-. c #532D81",
";. c #5B2D85",
":. c #523180",
">. c #553383",
",. c #593187",
"<. c #5C3589",
"1. c #5F398E",
"2. c #63358B",
"3. c #663C92",
"4. c #693F95",
"5. c #6C4295",
"6. c #6C4598",
"7. c #72439B",
"8. c #73499B",
"9. c #744DA0",
"0. c #7A54A9",
/* pixels */
"g @ O @ * * < ! B 4 = = = 4 e e v h > * O * - , v < h < > I $.g , # @ O O * 4 M i N 4 2 e 4 4 v < < < , * * , > , e h < h I { L - # O o O = t F q t i 4 = $ < z ; > , * O o O * x > ",
"c - @ , > , > x M e < = = > e M h < - O O - < h h > g < > J { < f , # @ * * = > 4 e 2 = < > > e h < , * * , > < , < e < < J P v 7 - @ O * = 9 e q t s 4 = = < z h < , $ O * > < h , ",
"o . . , v K ! _ 4 e e > = = 4 S #.I < * o o O @ > , < < > h c - o o o * < M B M y N 4 > e 4 < x &._ < * O o o . * > < > > h h < o . . $ < S F F q t i 4 = - < 8 :. .h , * O O o > * ",
"* O * < S J l 4 = 4 e > * * > x J c < , * * * - - - , > , > , @ - @ @ > l M 4 = 4 M 4 > e < < h I v < , * * * O * , , * , > > - $ O O = t A t q > > 4 > * * ; < { K h < > , * * , * ",
"* = > e M M < $ $ = < , O o * < < < h h < , * O O * - , , * O * * * = 4 M M 4 = * = * O * * O * > < h h < , * * * * * * * * * $ - $ = 4 M A t > * = = * * O $ - < e x h < > , * * * ",
"$ > e e e e < * O * , * O o * , > 7 v G c > O . O * @ * , O o > O * < M M M 4 < $ * * O * @ o @ - < v S e > * O O O @ * O O O O O $ 2 M M M t e * * * * @ O O o - < v v e , * O O * ",
"4 ^ ..B > * O . O O * * * @ @ @ . O , h J G h < O * O @ , O o h e D _ ! 4 * O O * > * * > - O - . O , h v v v h O O O * * O * * e D _ K 4 * $ $ * O * * * O o o . o , < x x h h o , ",
"= W ' N = = , * * @ @ * , , * O O * > h v c h < O * O O , O O J < D ' ! 4 * $ * O * @ O - @ o O , , , < h x e > O O O * * * * * > N _ ! 4 * * > * O O * * @ O o , , , < h h < > o , ",
"W W y > * $ O O - * @ * * * , , @ O O * , g G I > < h g < < < h _ W e = * $ $ * $ * , , > , , , * * * * * > h S > * J h > > O 4 W N e 2 = * $ $ = * O O , > , * O O O * , h J I > < ",
"i y 2 = * * @ @ * * - - * * * * , - * * - > < h , > < > , , , > D M 4 = * * * * * * , , > > , * * * O O * > h B > > I x < < * h N y 4 > = $ $ $ , * * * , , , * O O O O , < v I , > ",
"2 2 = * * * * - - - , , > > > > > , - @ O * , , - , > , * O * * 4 2 > = * * * * * * = > < < < > > , * O * * > < > > < O . O * e e 4 > = * $ $ $ $ - ; > > > > < > , * O * * > < * , ",
"= = * $ O * - - - - > < l M M M < , * O O O * * , , > , * O O * = = = * * * * * * , > e x B B M < , * O O * , > O > v h > , * * 9 > = * * $ $ $ O - 4 h e e A F 0 > * O O O * * , > ",
"= = * $ O * # - @ , < M ! ^ ' _ > , * O O @ - , > < < > , * * , * = * * * * * * * , < v K ^ ' | * O O o * , < h , < < > * O , e < > = * $ O $ $ O - h B D F _ #.* * O O O * > < > < ",
"2 2 = * @ @ @ # O - < S ! ' ' ^ = , * O @ - , < < < 7 < - , , > 4 < > , * @ @ @ * , < M ! _ ' ..* * O O * , < h > > * > * . * h e e < , * O O O O - 4 D ! _ ' ] < , * * * , > < < < ",
"N e 4 , @ @ @ @ O * < x D N i i > , , * * , < < - > < > , , , > S x < , * @ @ @ * , < e M N W N e < , * * * , > o , x <.:.* * * Z x 9 = - O O O O $ ; l W W s q M h > , * * , > > > ",
"! D e > * O O O O * > e y 4 2 = 4 > - - - , > < * , , , - - , > _ K e , * O O * * * > < 4 4 2 2 4 < , * * , > < < > ,  .P . * h P S e > , $ O O $ $ = 4 M i 2 * M 8 > , , , < 9 , , ",
"4 x J P J < * O > < 4 2 = 2 W ' L 7 - O $ * * * < , * O O O O O < e B ! P e * X = > 4 > = 4 D | l < * * * * : * : < > * O o O - < e x v h < * $ = = < 2 2 y _ *.J 8 , * * * * * : * ",
"> < B P P x > * = = 2 4 4 i W ^ L 7 & O O * * @ : * @ O $ O O X < 4 M ! ! D 4 * = = > 4 4 M ! | C 8 , $ * * * @ : : : * @ o O O - < h B B h < = * = > 4 q A ' ..L 8 = * * * * @ : * ",
"* > l P ! K x 4 = = > e D ! W K < & O X $ > < < @ @ * - - - O X , > e D _ ! S e * * > e D ! ! K 8 ; $ $ * > 9 < : * : , , - O X O , 4 B P K B l * = > e W _ ' ^ 8 ; * $ : < 9 9 * * ",
"o * < S I ! P D = = 2 M ^ ^ N 4 $ X . O > v P U @ * , < 8 < - $ $ * > l P _ ! K = , < x ! _ S 4 - $ O $ < x S J < : , < h 7 - X X * < v P ! ! ! = = 2 M ^ _ W e $ O o O < Z U _ * : ",
"O * > e S P ! ! < < 4 B ! D 4 * $ O O - h I U U * * > h V z 8 ; O O * > l J P P < > < v P J 4 * - $ $ - 0 Z J Z < < < h J B < * O * > h S P ! ! 4 4 4 B ! D 4 = $ O O * e P U U : , ",
"* * * > < l S D < 4 e M M e = $ O O - 8 L { { I * , > 8 V V V 8 * * O * > h v v > < e v v e , O O O $ > v P P Z < > < h S B l 4 * * = < 4 l B D 4 e e M M 4 = $ O O $ > v U U P : , ",
"< > * * * = 4 x = < e e < = * * O $ ; V { T G 7 * @ - ; 8 z V z < , * O * > < g , > < g < , - * O $ = l I I G h * * > < 4 l B K e < > * * > < e > 4 e e < = * * $ $ > l P I J h * * ",
"h < * o o * > 4 * = 4 4 = * * = = < z L Y V - o O O o @ ; 8 z v v < - O * , > < O , < < , * - > ; < e S I S > @ o O , = = 4 B ^ S e > * O * * > = > 4 < = $ * * 4 4 x J P v > O O O ",
"! B < * O * > < * * * * O O $ * < 4 h h 7 - + o O O O o $ , h J P v < - @ * , > > , , , * O O O < e v h < > , $ . ; < * $ 4 ^ _ ! S < * $ * * = * * * * O O O * < 4 x v x < , O O - ",
"-.#.S < * O O O * = , * O O * > M M 8 < - O . . o o O O * * 4 x %. .J < * O o o , , * @ O O * , l M v e > - O X O O $ = = * 2 W %.| v > * O * * , = , * O O * > K D l < , * O O o @ ",
"#.| D e > * * * < < > * O * > h B l < - O o . . . o O O * = < e | _ J h > , * O > > , $ O , < h x t e > , O o . < $ $ > 2 = 3 W .._ M < * * , > < < > * O * > h ! A e * O o o o . o ",
"l e e 4 < < < > v h > * @ - g J t 4 = O o o + - + o . o * > 4 4 < < 4 e 4 < < > x h < , > < l h t > * , , O o O $ $ O O * 2 3 2 W M 4 > , = > < v h > * @ , g S e q > * * O o o o o ",
"< < < > > , * * v h < - @ - g S x 4 = O o O - - 5 + . X , 4 e 4 > > < < > > = * D l < < 4 4 4 < A > * * - o o $ X $ < y W W w 2 M e < = * * * , v h < - @ - g J e 2 = * O O o o O o ",
"4 < > > * * O O g < > - @ * < h S e > * o o + O 6 - + - < l e 4 4 < > = * * * * M > * > > * > x #.e * * - . . O - $ ! 5.7.[ R E 4 > = * * * , , g < > - @ * < h F t = O o . o O # + ",
"e 4 < > * * * * , , , - @ @ - > e 4 = * O o . . + - 7 V v l e 4 M e > = * * = = e * $ = * O e ,.-.t * , , o . - $ $ | 8.7.( 3 w q < > = * * , > , , , - @ @ - < A q = * O o + # # - ",
"J v h < = * * * * * , * @ O @ - * * * $ O O O O . - Y o.I h < > _ K e = * * = = e $ $ > $ X ! 0.%.< O * > O & 7 - z -.5.2.' w w _ J x < * * * $ * * , * @ O @ * * = = > > - - - + 7 ",
"v T 7 < * . * O = > > = * @ @ * , O , O h > < - $ < I { _ S x x J c > * $ * = 4 = = = = $ * 4 B * @ O O * > 8 z = l _ _ N y W _ I G h < , * $ $ 4 4 > = = , * O * * * * * , - ; $ v ",
", , . O - * 4 * e e M e < > < < e h v > * o O * > e S P I I I I , - @ O * > l D 2.*.^ e 4 > * O G h , O o O * > > e M M e e N ! < , , - , > 4 e q e 4 4 > = , * h < > * * O * * > v ",
"f , o O * * > * 4 e e 4 > > > < < e < > O * * < v h h v P {  . .g , - O O * > 4 y 2 = * > < < < < < , * * * = > D B M M B ! | ..h < , * * * > 4 4 y N e > , > < > , * * * , < e h h ",
"O @ * , = < ! ..> < 4 > , - - ,  ._ > > O , o o > * O O > < e < O O o O * < M W = > 4 > , > e J  .I h = O O o O > * * * < e e e * O O O * 4 D ^ 2 e B l > * > h P v < * O O O * v < ",
"o O , , > e P #.> < < > , - - ,  .I > < O > o o v h < h S J x < o O $ * > 4 M M e M M < , * , < &.| e * o O $ * < > , < v S l < O O O * > e D ! = 4 e < * O , < { P h > * O O O e , ",
"> * , * > e = = * * , * O O O @ , < < h , > > h O O * * , * o . , > 4 e e 4 = = * O o o * - * O 4 4 4 4 4 < > > o o o O , , O . = > < 4 4 4 4 > * = > , * O - , h h < > > , , , , * ",
"$ X > < e D , , O O O O o . o o > < S h 4 * , , O * , , * $ O O O * 4 D ! B 4 > = * O O * - @ O = 4 D ! ! e * X = * * , , , * * O * 4 M D M e 4 * * * * * * - - v v h e < , * * * O ",
"> 4 ..! M e o * * , , - @ O @ @ O o > > _ S J < O * , , * $ , < > e ! ' ! M * o o O * * O O - > * = 2 e M M M M > , * O o o O * > e D ^ K e * O * * O * - - - @ @ * > < h x h h O o ",
"= y _ ^ l = * * * * * @ @ O O O o * > h v v v x O * , , , * * * 4 y M M e > * O $ * * * @ O o o * = = 4 <.e e ! * * , , * * - , M A W W M 4 * O $ * * , , * O O O * * < h v h < O * ",
"e B ! B > * O * * * * - - , > > O O * , < x J I , > < < > > , > ! D M 4 > = * * O O * , , > > > $ > 2 _ 6._ P | > < < < > , > < ! W N e < = * O * * - , , * * * O O O , e v v x , > ",
"B D M < * o O * @ @ - , > < < < , * O O * > v I > < h e < > , > _ ! M 2 * * * * O O * > > < < 4 = > * 4 #.e M _ < < e < > > < < ! D 4 = * $ * * * * , > > > , * * O O * > < h e > < ",
"e e e > O o O @ - - - , , > > > h < * O O * > e , > < > , * * * M e 4 > , * O O @ * , > > > > = > > X O > o * 4 = > < > * * * = M 4 > * O O * * @ * , < < 4 < < 4 > * O * * , , , > ",
"= > > > , @ O O * - , > > 4 4 4 e > , * O * * , * , > > * O O O > = = * * @ O O @ * , < 4 4 4 4 * < $ < > O $ * = > > = * $ * * = = * * * * * * * * > < e M y l e > * O O * * * , > ",
"$ * > < > - @ O O * , < x D ^ _ = , * * * , > > , > < < , * * * > = * O O O * - O * > e D ! _ _ * > O > O * > < < 4 4 > = * * = * * * , , - @ @ * * > e M W W D > * O O * > < < < < ",
"* , > > > - @ o O * , 4 M ! ' ..> , * * * , > < , > < < > , , = < < > , , - - - O * > l W ' ' .., < o *   O 4 h 4 e e 4 = = = = > > > , , @ @ O * , < l W W / ^ = * O O , < < < e e ",
"< > > , , - O o * * > < y N W W l < , O O * , < * * > > > , - = 4 e l x h > * O O * > e N W W ^ > c > J O , < > 4 e 4 > = * $ * h e < , * @ O O * * < x W ^ ' ' > , * * , > < > 0 0 ",
"J J J h , O O * , * $ $ 2 y y 4 B z < > = > < 9 = : > > > < ; < M F F 1.%.o O = = * = > 4 e i e h z , > , * 9 < : 9 < , , * $ < v S S e * @ * * > = = 2 y i i y M < , * , > < : O @ ",
"< h B B h > = * * * = > 2 i N W C z < = * = < 9 : * : * * - - - 4 i ] 3.<.q = > = > 2 2 > 4 D | z V , , * @ 9 : * < < * * O o - 4 Z P F e > * * * = > 2 q A W W B < , * * , : : @ * ",
"* , e S I K e > * > 4 q 4 y W ..C z < * * * < 9 : * * * * $ $ $ > = A ] ..W 4 i = 2 y q 2 q _ -.z V * * * O < < * < : @ * O . O * e _ #._ M > * = q i q i _ ' W B < * O * * , : * : ",
"O * , l _ | ! M > < 4 y N W ' ' M 4 , $ * = e t < : * * * * $ $ = $ 4 4 A #.A _ = 2 e i i W ..-.8 8 $ $ * @ e e : < * @ * O X $ $ < F ..#._ M e > i i i ] ;.*.M 8 ; $ O * > 9 0 , > ",
"* * * > B _ | _ x < > e ! .._ D = - $ $ * < Z U 9 < * * < < ; * * O t M _ ,._ _ > > 2 M _ .._ P = ; O $ * , J J , < , * > = $ , O * e D _ | _ _ = > 4 W <.7.<.y = $ O $ > e Z Z , < ",
"> * * * < v ! | D 4 = 4 ! ..D > $ $ $ * > h P _ e < : > l B l 2 = * = > M .._ _ e > > M _ ] D > $ - O , > < _ U < < , , h h < 4 * * * > x _ ..#.> > 2 D <.4.*.> $ O O , e J P P : , ",
"< > * * * > x P S 4 > 4 B S 4 * $ $ * > 4 v P _ 0 , * > B ! D e = = o O * > F ! t e e t A A 2 * O - * < h h { I , , * > B J v B < * * * > M ! _ q e 4 t _ _ i $ $ O * < S I I J * * ",
"> < > * $ * < x l e 4 4 e < = * $ = > 4 l v J P > * * > B ! ! M = 4 $ > 4 = D A M M t e > = = * $ = * e v c T J * , * , S I J ! e = * O * 4 t M > > > > > > = = * * , h P _ P v O * ",
"S v e * O O * , O * , , * O O O = > 4 S P J 8 - ; , * * = < x D A t > * * * * * * * * * * * * * * * K J P T - < o O * * * > D ..! t = $ * * * * > > > * * * = < = < > h  .v $ * = $ ",
"! P S < * * * * * > < > , * * * < 4 e M l < ; - , * * * * > e M _ P t > * * * * > > > > > = = = > = D x v v O - O O * * * > M _ #.! e = = > > = > = = * $ @ * < , J v < x < O O * $ ",
"_ _ ! M < * * * * * , , * O O * t M M 4 = $ O O $ O O $ * > 4 e #._ D e > * * * = = * * * * * * M e A < > - o o O O O O $ * e M =._ M 4 > > > = > > : * O @ * < h U P x < * o $ O $ ",
"D ! ! S 4 = * * * , > , * * * * F A q = $ o o o o O O $ * > 2 q _ ! A e > = = = > > = * * * = = F i e * O O . o @ + O $ * * > e _ F q > = * = = < < < * * * , 0 P e < < < O O ; O O ",
"4 e M l < , * * h h c h < < < h F i > * O O O o o o O $ * > 2 q A h 9 < > : : > S x e e 0 e e t A i = * O o o o # @ @ * * = > > M e 4 = * * = > e e 0 < , , 0 h e , O o * 4 < $ $ O ",
"= < 4 4 > * * * g h h < > , < e A q > * * - + O o O O - > 2 q q e < < > : * : , Z x e < < < e t s i * * O . @ O - # @ , > 4 q > q e 4 > = = > 0 e e e < , < 0 v 0 Z 9 . * &.&.$ - $ ",
"< 4 e 4 = * * * , , , - @ @ - , s i q > * - + O o + - ; < q t q e 0 < > > * * * < < * * * * , > s A = = * . - o - # - > e t t q q e q > * * , < 0 0 < , * , < h Z J x * * o.O.$ - - ",
"l x x < = * * * > > , - @ @ - > x M M 4 , $ O O + - - < e e i t A x e < > * * * e < , * * * > < A F > < , . - o - - - < l A s t e e e > * O * * < > , * @ * , < Z * * , o O - X * = ",
"e v P J < * O O O * * * @ @ * , O $ - - * * - ; $ > #.,._ A M = _ #.B v > . , O * * * * * * * * O O * * , , - * O h #.=...B e e _ K e = * O $ * @ - , * $ $ * * O @ - * O O * = = | ",
"h v v h > * * * * , , , * O * * , - , - O O $ * = < _ #.A M W t x I < < * . , * * * * * * * * * > > , * * * * * = e _ _ K M D ! D M < * $ O * , - , , * * * = > * - * @ O * , > 4 K ",
"x h < , * O * > v S J v e < < < , ; , * $ O * = 4 4 A S 4 t _ _ > < * * O o > > v v v h e < < < h < , * * * > < 4 e M l 4 l _ =.e < * O O * > < v G v x e e M D h < * * * * > > x 4 ",
"h < * O o * > e v v v h > , , = 4 4 < = * $ , > 4 4 e < > e _ #.* * O O O * < h v x h < < > , , I v < * * * < e e e e > > 4 ! %.> = * * * > h v c c h < < 4 e S | B > * * = = * B = ",
"e > * o O * < h e h h < , * * * | ^ K l = $ $ * , > > > < e Z _ * * * * , e x J e < < > , * * * %.| v > * O * * e e 4 > = 2 M K = = = , > < v J < < < > = > 4 M #.! 4 = = = * $ l * ",
"> * O * , < h x < e e < , * * * ! ! ! z 2 ; * = O , * * 0 0 < e , O , , < J x J < < > > > , * , { I v e > * * O > < > > = = > 4 = = > < e h c v < < < > = > 4 e | ! l < > = * $ < * ",
"* * * > h v v h * * * * O O O $ = 1 4 4 4 2 < < o * * @ < > @ , > O > > e I < h O O O O O O O O > < h h h < = * * * * = = = = = * = < h l h < > O O * $ $ $ $ * e y y e 2 = = = * , ",
"O O * < J P v e * , > , , * , = $ % 2 4 2 = = = O , O O < , o @ , O < > h P > < * * * * * , , , * , h v v < * O $ $ $ * * = = = * = 4 l l < , * * , , , * * * = * > y y 4 > > < O > ",
". > h { I < > o o * * O O * , $ X = = = 4 .._ > * O * , * * * O . > _ #.I < * O O * * , , , * * O O * , > h B K $ o 4 = X #.9.#.4 4 _ | < , > * * * * O $ $ * * $ * > y K D 4 * * * ",
"* h v { P > > O O * * O O * , $ $ = = * > D K l * O * , @ @ * O , h I I h , O O o o * , > > * O * * * , > < x S * $ e 4 $ _ <.D e e ! I = * , O * * * * * * * * = * = > l B x e * * ",
"< J v I S > > O O * * * * , , * 4 = $ $ * = e ! < > e x < < 0 , v J J h , O O * > > , * , > > > O O O * > h S P * = e e 2 M D = M l D x * O @ O * * * , = = = = = * $ * < M D D < 4 ",
"> v e v < * > * * * * * , , > = 4 = * $ O $ < D h < x S e e e < v v h > * O O * * * O O * , , > * * * * , < x S = 4 4 4 4 > * * e e e > $ o O @ @ * , > < 4 4 4 = * $ * > e M M e l ",
"* < , > , O > * * * * , > < < 4 > < > $ O $ > < > * > < * * > * < < < > * * * * * * > h v v h < v e > * * * * = < e > > 4 = O * 4 4 = * * O @ , @ - > < e x l e > * * * > < < > = > ",
"O , * , * o , * * * , < h h v J < < ; $ $ * > = > * > < = = = * * * , , , , * * e < , * , > > < v e > * O O * , 4 e > = > * $ = = < * O * * @ > O - < x D D D B > , * , < < > * = > ",
"* > * , * o * $ * @ , < v S I { v ; $ - , - * < 4 > e t > 2 4 = * * * * * * * * >.$.I v J { &.>.> , * O O * < e e e 4 < = = * * > 4 * O = * O , O - < S ! ! ! K , * $ * > < < = < 4 ",
"> h > < , o * O * $ * e S P _ $.{ - . - < * * x > * > e = = > * > , * O $ * * * O @ = e K { ..$.< , * o O * < h e e x e > = * X 4 l = $ > * o * O , e J _ _ _ ! , O o O , < e 0 > > ",
"O V 7 I _ O O O * > : * e Z q : l > h , , > * > , , * * * * * , < x F S e < < e * * * < e h > * < < = * * * : : * * > = * $ - > ! A ! D * * < : * * * > < e e < < - * * , > > * : * ",
"; V h L J * * o * > > = > t t a h > < * * < , < * * * * * * * * x S P D t > * $ * * > e e e e e z 8 < * * * : : * * > = * $ $ ; P M t < * * = * * * = > > e M S z ; * $ * * * * : * ",
". $ - h S J _ e = > > > > 9 A ] %.I J , O O . O * * * * * * O o $ * < A P D e > * = 4 e 4 e F | L z < * * * : = * = > * $ O $ $ = x _ #.-._ * o * = > > > e P ..V 7 - O * * * @ : * ",
"* O , < < I #.9 x = = e e t _ %._ h h * O , * > , * * * * * O o * * 4 F | _ t = > > > < e F | #.C l > * * * > t = = = * * $ $ $ * e < t #._ > > * > e t e M _ #.z < * O * * : * : * ",
"= O , > > _ #.Z _ = * e t F ] _ S > < * * > > v < > * * > < > * * * > S | #._ M x > * > S ..#._ 4 > * $ * < h J < = : * , , - * $ > * > _ _ S P * > x P F D P P < - $ O , < 0 9 * : ",
"* X * * , I { +.#.> * e t _ #.e x > < * * < > x v < * , < x h 4 o O * e P ..#.#.F e * > ! #._ x = $ $ * = e P { < > > > < 4 < < O * > x | #._ | = < M _ _ P x 4 * $ O * < Z S Z * > ",
"J 4 e * * > * J _ < < x e P _ = O X * * > K P #.K < * * < S K S e 4 > = = > t D F e < e P _ A > $ $ * = < v I | < > > < l B B l = * $ O O 4 | -.x e e A P D e * $ O * > v I I J * < ",
"x < < O * * @ +.J < S F > x _ * * O > * < B x P P < $ $ < K ! I > > * O o * e _ M x M S F A e = $ $ * > e J _ | < > > < S ! ! D * * 4 t = e _ _ _ A e e S A > O $ $ * 4 J T I J * < ",
"_ P < * = * O * * * * * > * * O * $ < M B | ! * = * * * * = l ! S M e > * * * > 4 O * < * * > $ * = 4 l x l < > , - > * * = e ! S _ * * > * * 1.%.= > > * > o * * > x P I v < - @ o ",
"F | _ x < * O * > > > < < > * * * * l D e M B * $ $ * * * > l ! F D M e > = > < < * = < * * > * 4 4 e e e < ; , - , , * * = e W A D * < > > > 1.#.> 4 > = > * > = > e v v h < - @ O "
};
