/* XPM */
static char *ground1714838484[] = {
/* columns rows colors chars-per-pixel */
"64 64 256 2 ",
"   c black",
".  c #010101",
"X  c #020202",
"o  c gray1",
"O  c #040404",
"+  c gray2",
"@  c #060606",
"#  c #070707",
"$  c gray3",
"%  c #090909",
"&  c gray4",
"*  c #0B0B0B",
"=  c #0C0C0C",
"-  c gray5",
";  c #0E0E0E",
":  c gray6",
">  c #101010",
",  c #111111",
"<  c gray7",
"1  c #131313",
"2  c gray8",
"3  c #151515",
"4  c #161616",
"5  c gray9",
"6  c #181818",
"7  c #191919",
"8  c gray10",
"9  c #1B1B1B",
"0  c gray11",
"q  c #1D1D1D",
"w  c #1E1E1E",
"e  c gray12",
"r  c #202020",
"t  c gray13",
"y  c #222222",
"u  c #232323",
"i  c gray14",
"p  c #252525",
"a  c gray15",
"s  c #272727",
"d  c #282828",
"f  c gray16",
"g  c #2A2A2A",
"h  c gray17",
"j  c #2C2C2C",
"k  c #2D2D2D",
"l  c gray18",
"z  c #2F2F2F",
"x  c gray19",
"c  c #313131",
"v  c #323232",
"b  c gray20",
"n  c #343434",
"m  c #353535",
"M  c gray21",
"N  c #373737",
"B  c gray22",
"V  c #393939",
"C  c #3A3A3A",
"Z  c gray23",
"A  c #3C3C3C",
"S  c gray24",
"D  c #3E3E3E",
"F  c #3F3F3F",
"G  c gray25",
"H  c #414141",
"J  c gray26",
"K  c #434343",
"L  c #444444",
"P  c gray27",
"I  c #464646",
"U  c gray28",
"Y  c #484848",
"T  c #494949",
"R  c gray29",
"E  c #4B4B4B",
"W  c #4C4C4C",
"Q  c gray30",
"!  c #4E4E4E",
"~  c gray31",
"^  c #505050",
"/  c #515151",
"(  c gray32",
")  c #535353",
"_  c gray33",
"`  c #555555",
"'  c #565656",
"]  c gray34",
"[  c #585858",
"{  c gray35",
"}  c #5A5A5A",
"|  c #5B5B5B",
" . c gray36",
".. c #5D5D5D",
"X. c gray37",
"o. c #5F5F5F",
"O. c #606060",
"+. c gray38",
"@. c #626262",
"#. c gray39",
"$. c #646464",
"%. c #656565",
"&. c gray40",
"*. c #676767",
"=. c #686868",
"-. c DimGray",
";. c #6A6A6A",
":. c gray42",
">. c #6C6C6C",
",. c #6D6D6D",
"<. c gray43",
"1. c #6F6F6F",
"2. c gray44",
"3. c #717171",
"4. c #727272",
"5. c gray45",
"6. c #747474",
"7. c gray46",
"8. c #767676",
"9. c #777777",
"0. c gray47",
"q. c #797979",
"w. c gray48",
"e. c #7B7B7B",
"r. c #7C7C7C",
"t. c gray49",
"y. c #7E7E7E",
"u. c gray50",
"i. c #808080",
"p. c #818181",
"a. c gray51",
"s. c #838383",
"d. c #848484",
"f. c gray52",
"g. c #868686",
"h. c gray53",
"j. c #888888",
"k. c #898989",
"l. c gray54",
"z. c #8B8B8B",
"x. c gray55",
"c. c #8D8D8D",
"v. c #8E8E8E",
"b. c gray56",
"n. c #909090",
"m. c gray57",
"M. c #929292",
"N. c #939393",
"B. c gray58",
"V. c #959595",
"C. c gray59",
"Z. c #979797",
"A. c #989898",
"S. c gray60",
"D. c #9A9A9A",
"F. c #9B9B9B",
"G. c gray61",
"H. c #9D9D9D",
"J. c gray62",
"K. c #9F9F9F",
"L. c #A0A0A0",
"P. c gray63",
"I. c #A2A2A2",
"U. c gray64",
"Y. c #A4A4A4",
"T. c #A5A5A5",
"R. c gray65",
"E. c #A7A7A7",
"W. c gray66",
"Q. c #A9A9A9",
"!. c #AAAAAA",
"~. c gray67",
"^. c #ACACAC",
"/. c gray68",
"(. c #AEAEAE",
"). c #AFAFAF",
"_. c gray69",
"`. c #B1B1B1",
"'. c #B2B2B2",
"]. c gray70",
"[. c #B4B4B4",
"{. c gray71",
"}. c #B6B6B6",
"|. c #B7B7B7",
" X c gray72",
".X c #B9B9B9",
"XX c gray73",
"oX c #BBBBBB",
"OX c #BCBCBC",
"+X c gray74",
"@X c gray",
"#X c gray75",
"$X c #C0C0C0",
"%X c #C1C1C1",
"&X c gray76",
"*X c #C3C3C3",
"=X c gray77",
"-X c #C5C5C5",
";X c #C6C6C6",
":X c gray78",
">X c #C8C8C8",
",X c gray79",
"<X c #CACACA",
"1X c #CBCBCB",
"2X c gray80",
"3X c #CDCDCD",
"4X c #CECECE",
"5X c gray81",
"6X c #D0D0D0",
"7X c gray82",
"8X c #D2D2D2",
"9X c LightGray",
"0X c gray83",
"qX c #D5D5D5",
"wX c gray84",
"eX c #D7D7D7",
"rX c #D8D8D8",
"tX c gray85",
"yX c #DADADA",
"uX c gray86",
"iX c gainsboro",
"pX c #DDDDDD",
"aX c gray87",
"sX c #DFDFDF",
"dX c gray88",
"fX c #E1E1E1",
"gX c #E2E2E2",
"hX c gray89",
"jX c #E4E4E4",
"kX c gray90",
"lX c #E6E6E6",
"zX c #E7E7E7",
"xX c gray91",
"cX c #E9E9E9",
"vX c #EAEAEA",
"bX c gray92",
"nX c #ECECEC",
"mX c gray93",
"MX c #EEEEEE",
"NX c #EFEFEF",
"BX c gray94",
"VX c #F1F1F1",
"CX c gray95",
"ZX c #F3F3F3",
"AX c #F4F4F4",
"SX c gray96",
"DX c #F6F6F6",
"FX c gray97",
"GX c #F8F8F8",
"HX c #F9F9F9",
"JX c gray98",
"KX c #FBFBFB",
"LX c gray99",
"PX c #FDFDFD",
"IX c #FEFEFE",
"UX c white",
/* pixels */
"y.u.y.w.8.5.5.6.6.6.6.5.5.5.5.5.5.7.5.8.y.i.t.p.z.c.v.n.n.v.m.j.>.=.=.1.j.n.n.c.p.t.y.y.8.4.5.5.6.5.6.5.3.4.5.5.5.5.2.7.r.u.u.u.",
"y.u.y.e.7.5.6.5.4.4.5.5.6.6.6.6.6.6.4.7.y.i.t.a.v.b.c.c.c.x.n.h.>.*.&.1.j.n.n.x.p.y.u.y.8.4.5.5.6.6.5.5.5.5.5.6.6.5.4.7.r.u.y.t.",
"t.u.u.e.7.5.6.4.4.4.5.6.6.6.6.6.6.5.4.7.t.u.t.u.x.m.b.b.b.x.b.h.<.&.&.1.j.n.b.l.i.u.u.t.8.3.5.5.5.7.6.4.6.5.4.6.6.5.5.9.r.y.y.y.",
"t.u.u.r.0.7.6.8.9.q.w.w.q.q.q.q.q.q.q.e.i.a.p.s.h.z.k.k.z.l.l.s.1.-.;.4.k.n.b.z.s.a.a.p.e.9.w.0.4.5.5.2.8.8.7.9.8.7.8.q.e.r.r.t.",
"y.u.y.t.r.e.t.p.g.k.k.l.k.k.k.k.k.k.k.l.z.x.z.g.r.w.0.9.0.8.0.9.3.4.3.7.l.b.b.v.c.c.x.x.l.j.c.d.1.=.-.,.q.r.e.t.e.e.r.e.0.8.7.6.",
"i.y.t.t.y.y.y.d.x.b.b.b.n.n.n.n.n.n.n.b.b.v.b.k.9.4.5.5.6.5.5.6.3.6.6.q.l.b.v.v.b.v.v.v.b.v.M.h.,.%.-.,.e.i.u.a.y.i.p.t.8.4.4.5.",
"u.y.t.u.i.i.i.f.v.n.n.b.b.n.b.v.b.b.b.b.v.v.n.l.0.4.7.7.4.5.5.5.4.5.4.q.k.M.n.n.c.v.b.b.b.b.m.f.,.&.*.:.w.u.u.i.t.y.i.r.7.5.6.5.",
"u.y.u.u.r.w.e.u.j.l.l.x.x.x.x.l.j.h.j.k.z.x.x.g.q.6.7.5.5.6.5.5.9.w.q.r.g.z.l.z.z.x.x.x.x.z.c.d.4.;.;.2.y.a.p.p.r.t.u.r.9.8.9.8.",
"i.y.u.q.1.;.;.<.9.q.q.0.0.9.9.6.1.<.<.3.8.0.0.0.5.4.6.5.5.5.5.q.f.z.z.f.y.q.0.w.i.p.a.a.a.p.s.a.e.w.w.r.j.x.z.k.p.u.i.u.t.r.t.t.",
"u.t.i.0.:.&.&.;.4.6.5.6.5.5.6.2.;.*.*.:.4.6.6.5.5.4.5.5.5.6.4.q.z.n.m.j.0.3.5.9.t.y.u.u.u.t.y.y.y.u.u.a.x.n.b.c.a.u.u.u.u.y.y.u.",
"y.r.p.q.:.*.*.;.5.6.5.6.4.5.6.2.-.&.%.-.3.6.5.6.7.5.4.6.5.5.3.q.z.b.v.h.q.4.6.8.t.y.u.u.u.u.y.r.y.u.y.p.x.b.n.c.p.y.y.y.u.y.y.u.",
"u.u.y.q.2.>.<.3.5.7.8.7.7.7.9.7.>.-.-.<.2.6.4.4.7.8.7.9.9.8.9.t.h.c.x.g.e.7.8.9.w.r.t.t.t.t.r.r.t.t.r.i.g.z.x.h.i.t.t.t.y.y.y.y.",
"t.u.y.a.h.g.h.f.y.t.y.t.y.t.t.y.w.e.w.9.:.;.-.1.0.r.r.i.j.l.k.g.p.a.s.i.y.t.t.r.7.8.9.9.8.8.8.8.8.8.8.8.9.q.q.9.8.8.8.0.t.u.i.u.",
"u.y.r.a.z.b.m.z.p.y.y.y.i.u.t.i.p.u.i.e.;.=.=.>.w.u.y.d.x.v.v.z.p.u.t.y.u.u.u.r.7.5.4.4.5.5.5.5.5.5.5.6.6.4.4.5.7.7.5.8.t.u.y.y.",
"y.y.t.s.x.b.v.k.u.t.y.y.u.i.u.u.i.u.i.w.-.&.*.>.e.u.t.s.z.v.b.z.p.r.u.u.u.u.u.t.7.5.4.4.5.5.5.5.5.5.5.5.5.5.5.5.5.5.5.9.t.i.i.u.",
"y.y.t.s.z.c.v.z.d.a.s.a.y.r.t.e.r.t.t.w.,.:.;.,.q.r.r.i.j.z.z.j.u.r.t.r.r.r.t.t.0.0.9.9.0.0.0.0.0.0.0.0.0.q.q.0.9.8.0.w.w.e.r.e.",
"u.y.e.a.c.b.v.b.z.z.c.h.w.6.7.7.8.8.8.8.3.5.3.3.8.9.8.0.q.q.w.q.8.9.8.8.8.8.7.0.h.j.k.k.k.k.k.k.k.k.k.k.k.k.k.k.k.l.z.a.6.>.:.>.",
"y.y.r.a.x.b.b.v.v.n.n.l.q.4.7.4.6.7.6.5.5.5.4.5.6.6.5.5.6.5.5.7.6.5.6.5.6.5.4.9.l.b.v.v.v.v.b.n.b.b.b.v.b.b.b.n.m.n.b.g.3.&.*.*.",
"y.u.y.d.c.b.n.v.b.n.b.h.9.3.6.4.5.5.5.4.5.5.4.6.5.5.5.5.6.6.5.6.6.4.4.5.7.7.6.0.z.n.b.b.n.c.v.n.b.b.n.b.b.n.b.b.b.v.n.f.2.*.-.*.",
"t.y.t.p.j.l.z.z.x.v.v.g.q.7.9.8.8.8.8.7.5.5.5.6.6.6.6.5.6.6.5.7.8.7.7.7.4.3.3.7.k.c.x.c.c.x.c.x.z.l.z.z.z.x.x.z.k.k.k.i.3.:.:.:.",
"7.8.6.8.q.0.0.w.y.a.a.a.y.r.t.t.r.r.t.w.7.5.5.6.6.6.6.5.6.5.5.9.e.t.r.0.>.=.:.1.y.a.p.a.a.p.a.u.e.0.q.0.9.0.q.8.3.,.>.2.0.q.q.e.",
"6.7.5.6.7.4.4.7.e.y.y.u.i.u.u.u.y.y.u.r.7.5.6.6.5.6.5.6.6.6.5.0.r.u.u.w.:.%.-.:.e.i.u.u.i.y.y.w.7.5.6.6.5.5.7.3.;.*.&.>.e.i.y.i.",
"4.6.5.5.6.4.5.8.e.u.u.t.y.y.y.y.t.t.u.r.7.5.6.6.6.5.6.5.5.5.5.8.e.y.u.w.,.&.=.:.e.y.y.y.u.y.y.e.8.4.6.6.4.4.6.2.-.&.*.>.0.i.y.u.",
"0.0.0.0.0.9.9.w.e.y.u.t.t.t.t.t.t.y.u.r.8.5.5.4.8.9.q.0.7.0.q.q.r.u.u.0.1.;.:.3.r.r.t.t.t.y.t.r.w.8.0.0.8.9.0.7.3.,.>.4.0.t.w.e.",
"k.k.k.k.k.k.k.g.i.i.y.y.u.u.u.u.u.u.u.r.7.4.4.0.d.k.l.l.k.k.k.d.i.y.u.t.w.q.q.e.y.y.y.u.u.u.t.i.h.k.l.k.j.k.z.l.h.h.h.i.3.,.:.>.",
"b.b.b.b.b.b.b.l.p.i.u.u.i.i.i.i.i.i.i.t.8.5.5.q.x.m.b.n.b.v.b.l.a.u.t.y.u.i.u.y.y.y.u.u.u.i.t.p.c.m.v.v.b.b.b.v.v.v.M.j.,.*.=.*.",
"b.b.b.b.b.b.b.k.p.u.y.y.u.u.u.u.u.u.i.r.8.6.5.0.l.b.v.n.m.b.n.x.a.u.u.u.i.i.y.t.y.y.u.u.u.i.t.p.v.m.v.b.n.n.v.c.c.c.n.j.,.&.=.=.",
"z.z.z.z.z.z.x.j.p.i.u.y.y.y.y.y.t.e.r.w.7.5.6.w.h.l.l.z.x.k.l.k.y.y.t.r.e.w.w.w.r.t.t.t.y.y.r.u.j.l.k.l.x.x.l.z.c.z.z.g.2.;.:.:.",
"p.p.p.p.p.p.p.i.y.y.y.e.8.9.9.9.7.7.9.8.5.5.5.6.q.0.0.0.q.0.q.w.8.8.7.5.,.:.,.<.6.7.7.8.8.7.7.8.0.q.0.0.q.q.0.w.p.p.p.p.e.w.w.w.",
"u.u.u.u.y.y.u.u.u.u.u.y.5.4.5.7.8.6.6.6.5.6.5.5.6.5.4.5.5.5.5.5.5.5.4.2.=.%.=.;.4.5.6.6.6.5.5.5.5.5.5.4.4.6.4.7.t.u.u.u.u.u.u.u.",
"u.u.i.u.y.t.y.y.y.y.y.t.6.6.5.5.7.3.5.5.4.5.6.4.7.6.4.4.5.4.4.4.4.5.5.2.-.&.*.;.4.5.6.6.5.5.5.5.5.5.5.5.4.6.6.8.t.y.y.y.y.y.y.y.",
"y.y.y.u.i.i.i.i.i.i.i.y.5.5.4.3.8.0.w.0.6.5.6.5.7.8.6.6.7.8.8.8.8.8.8.6.3.<.,.1.8.8.9.9.9.9.8.8.8.8.8.9.8.9.0.q.y.i.i.i.i.i.i.i.",
"i.u.u.a.h.z.z.z.z.z.z.d.1.-.-.4.f.l.l.d.0.4.6.8.w.r.r.e.r.r.r.r.r.r.y.u.f.j.h.j.j.k.k.l.k.k.k.k.k.k.k.k.h.j.k.j.z.z.z.z.z.z.z.z.",
"u.t.t.s.x.n.v.v.v.v.v.f.<.*.*.4.k.n.n.j.q.5.6.9.r.u.u.u.u.y.y.y.y.y.y.p.x.m.b.n.b.n.n.m.n.n.n.n.n.n.n.n.v.b.b.c.c.v.v.v.v.v.v.v.",
"y.y.r.s.c.b.b.b.b.b.b.f.<.%.=.4.k.b.m.j.0.4.6.8.t.p.u.y.u.u.u.t.y.i.y.i.x.v.v.v.b.v.v.b.b.b.b.b.b.b.b.n.b.b.b.v.c.n.b.b.v.b.b.v.",
"y.u.y.s.k.l.z.z.z.z.z.d.3.*.-.3.f.z.z.d.0.5.6.8.r.y.t.t.y.u.u.t.e.r.e.t.l.x.c.x.c.x.x.c.l.l.z.z.z.z.z.l.l.l.k.x.b.b.n.v.c.c.c.c.",
"u.u.y.t.e.q.0.0.0.0.0.0.3.3.4.4.0.q.q.9.7.6.5.5.8.8.8.q.y.i.u.e.3.>.>.2.y.p.s.p.i.p.p.u.w.0.0.0.0.0.0.0.q.w.9.t.l.b.b.z.f.a.a.p.",
"y.u.u.e.7.4.4.4.4.4.4.4.5.7.7.5.4.5.5.5.6.7.6.5.6.4.5.9.t.u.u.q.:.%.*.>.e.u.i.u.t.y.y.r.7.4.4.4.4.4.4.4.4.5.3.q.l.v.b.l.p.y.y.u.",
"t.y.p.t.8.7.6.6.6.6.6.5.7.5.4.7.6.5.6.5.3.3.4.6.7.5.5.0.t.t.u.e.>.*.*.:.r.u.i.y.y.y.y.r.8.5.6.6.6.6.6.6.4.5.4.w.z.c.n.x.s.i.i.u.",
"y.t.i.r.8.7.6.7.8.8.8.6.6.6.6.8.4.4.6.7.6.7.0.8.0.9.8.q.r.r.t.q.;.&.&.;.q.t.t.t.i.i.i.y.q.9.8.8.8.8.8.q.6.6.8.w.k.x.b.l.i.t.y.y.",
"u.u.y.y.t.r.e.u.h.k.k.f.7.6.7.5.5.5.7.q.g.j.l.h.j.k.k.f.0.6.8.5.-.=.*.;.6.0.8.e.j.x.x.l.k.j.j.j.j.j.j.h.t.r.t.r.a.a.s.a.u.u.u.y.",
"y.y.u.y.y.t.t.s.x.b.b.k.8.5.6.5.7.6.5.q.z.v.b.v.v.b.b.k.9.3.6.4.;.*.*.-.3.7.4.0.z.b.b.b.v.v.b.b.b.b.b.z.i.y.i.t.u.u.u.u.u.i.i.u.",
"u.u.u.u.y.y.t.s.c.n.n.j.9.5.3.5.6.4.2.9.x.b.n.b.v.b.n.j.9.4.4.2.;.%.*.;.4.7.5.q.z.v.b.v.b.b.b.b.b.b.b.x.p.y.u.y.t.y.y.y.u.i.i.u.",
"r.e.e.r.u.i.u.s.z.c.c.g.0.7.6.8.5.5.4.0.l.x.c.x.x.x.x.j.w.7.6.3.2.:.>.<.7.0.9.t.z.x.x.x.c.c.x.x.x.x.x.l.s.i.i.p.a.p.a.i.t.r.r.r.",
">.:.>.4.w.u.y.t.a.p.a.p.e.r.e.e.6.4.5.7.p.a.a.p.d.a.p.s.t.r.e.t.f.d.f.g.l.z.k.k.a.s.a.p.a.s.a.a.a.a.a.f.k.l.l.l.z.x.v.d.5.>.>.>.",
"=.*.&.1.w.u.y.t.y.y.y.i.y.u.u.t.7.4.5.7.t.y.y.y.i.y.t.i.t.y.t.a.b.n.v.v.b.b.v.z.i.y.y.t.y.u.y.y.y.y.y.p.c.m.n.m.b.c.b.g.2.%.*.&.",
"&.&.$.<.r.p.i.i.i.i.i.i.y.t.u.r.7.5.4.7.t.i.u.i.i.i.i.i.u.i.y.a.b.b.v.b.v.v.b.c.s.u.i.i.u.p.i.i.i.i.i.a.c.b.v.m.c.c.b.j.2.%.-.*.",
":.;.;.3.e.y.t.t.t.t.t.t.e.e.r.q.6.4.4.7.r.y.y.t.t.t.t.t.t.t.e.u.c.v.v.b.b.b.b.x.p.t.y.t.t.y.t.t.t.t.t.i.k.z.l.x.l.l.c.f.2.=.>.:.",
"q.q.w.q.9.8.8.8.8.8.8.9.9.9.9.7.5.5.5.6.9.0.9.8.8.8.8.8.8.9.8.e.z.v.v.b.b.b.b.z.w.8.8.8.8.9.8.8.8.8.8.8.w.w.w.r.w.q.w.r.q.0.w.q.",
"y.u.p.t.8.5.6.6.6.6.6.5.6.6.5.4.4.5.5.5.5.4.4.6.6.6.6.6.4.4.4.q.l.b.v.b.b.b.b.l.9.5.6.5.5.6.5.6.6.6.5.4.4.4.4.5.5.5.2.8.y.u.y.i.",
"u.y.i.r.7.7.5.5.5.5.5.5.5.6.5.5.6.5.5.5.4.4.5.5.5.5.5.5.5.6.5.q.z.n.b.b.b.b.b.l.0.5.6.5.5.6.5.5.5.5.6.7.5.4.5.5.6.6.5.7.r.y.t.y.",
"i.p.y.r.q.8.8.8.8.8.8.8.8.9.8.8.9.8.9.9.8.9.9.8.6.6.6.6.5.4.4.q.g.x.x.x.x.x.x.h.8.6.5.5.6.5.5.6.6.6.8.9.7.7.7.5.7.7.8.q.y.i.p.p.",
"y.i.u.s.h.h.h.h.h.h.h.j.j.j.j.j.j.k.l.l.l.l.k.f.y.r.r.q.8.5.4.7.q.r.w.w.w.w.w.9.:.;.;.,.3.5.5.7.q.r.r.r.e.t.t.u.g.k.k.l.z.z.l.z.",
"y.u.y.d.v.n.b.b.b.b.b.v.v.v.v.v.v.c.c.c.c.c.v.z.i.t.u.e.8.6.4.5.6.5.5.5.5.5.5.3.;.*.*.:.2.5.5.7.r.i.t.t.y.u.t.p.c.b.c.v.b.v.v.b.",
"u.y.r.s.c.n.v.v.v.v.v.b.b.b.b.b.b.v.v.v.v.v.b.z.i.t.u.r.8.6.5.6.6.5.5.6.6.6.6.4.-.*.*.:.3.6.5.8.t.p.u.y.u.u.r.p.v.b.v.v.b.v.v.b.",
"u.u.t.a.l.x.c.c.c.c.c.x.x.x.x.x.x.x.x.x.x.x.z.j.i.t.y.w.8.6.5.7.7.7.6.6.6.6.6.4.:.:.:.1.7.9.9.0.r.y.y.u.y.t.t.p.l.x.z.x.c.c.x.c.",
"u.u.t.i.s.s.a.a.a.a.a.y.w.w.w.w.w.q.q.q.q.0.q.0.8.7.8.7.6.5.5.8.w.e.r.r.r.r.r.y.f.f.f.g.j.k.j.g.a.u.u.t.9.7.7.7.q.q.q.r.i.a.a.s.",
"u.u.y.y.u.y.y.y.y.y.y.r.6.4.6.5.5.4.8.5.5.3.7.6.7.6.5.6.7.6.5.8.r.y.u.u.u.u.y.p.c.n.n.v.v.b.n.z.p.t.u.r.7.5.6.5.6.7.5.9.t.u.y.u.",
"u.u.u.u.u.u.u.u.u.u.u.r.6.4.6.5.4.5.7.5.6.4.6.5.6.5.5.4.5.5.5.9.t.i.u.y.u.u.y.p.z.b.n.b.n.m.m.x.a.y.u.r.7.5.5.5.6.4.3.8.r.u.y.u.",
"r.r.r.r.r.r.r.r.r.r.r.q.6.5.6.5.1.3.3.3.q.9.9.9.9.0.9.7.6.6.6.0.r.y.u.u.u.u.y.p.l.x.v.c.x.l.l.h.u.t.r.w.7.5.5.5.8.6.6.9.r.u.u.y.",
"8.8.8.8.8.8.8.8.8.8.8.7.6.5.5.4.,.;.;.3.d.h.j.k.j.k.k.f.u.r.e.t.y.y.y.u.u.u.y.u.a.a.s.p.r.q.w.q.7.8.8.8.6.5.5.6.q.e.e.r.t.u.u.y.",
"4.4.4.4.4.4.4.4.4.4.4.4.6.5.5.4.;.*.&.2.l.n.b.b.v.n.n.z.d.i.u.i.i.u.u.y.u.u.u.y.y.t.t.r.7.3.5.4.3.6.4.5.4.5.5.8.r.y.y.y.y.u.i.y.",
"6.6.6.6.6.6.6.6.6.6.6.5.6.6.5.4.;.=.&.<.l.v.c.b.v.b.b.l.a.y.y.u.u.y.y.u.u.u.y.u.u.u.i.y.9.5.6.5.5.6.5.5.4.5.5.8.y.y.u.y.y.u.u.y.",
"5.5.5.5.5.5.5.5.5.5.5.5.6.6.5.4.-.*.*.<.x.b.v.b.b.v.b.l.p.y.u.y.y.u.u.u.u.u.u.y.y.u.u.r.8.5.6.6.6.5.6.5.5.6.5.7.t.u.u.u.u.y.y.u."
};
