/* XPM */
static char *imageedit_21_67001586271714838839[] = {
/* columns rows colors chars-per-pixel */
"40 40 53 1 ",
"  c #0E0D00",
". c #3C3900",
"X c #3D3A00",
"o c #F9EC00",
"O c #FCEF00",
"+ c #FDF200",
"@ c #FFF500",
"# c #FFF200",
"$ c #FFF100",
"% c #FFF400",
"& c #A29A00",
"* c #625D00",
"= c #FFF300",
"- c #FEF100",
"; c #A49B00",
": c #121100",
"> c black",
", c #161500",
"< c #3B3800",
"1 c #D3C800",
"2 c #CBC100",
"3 c #020200",
"4 c #C6BC00",
"5 c #3E3B00",
"6 c #E0D400",
"7 c #ECE000",
"8 c #5C5800",
"9 c #999400",
"0 c #FFFA00",
"q c #E8E000",
"w c #C5BB00",
"e c #E8DC00",
"r c #FBEE00",
"t c #FFF600",
"y c #878000",
"u c #070700",
"i c #FFF700",
"p c #666100",
"a c #131200",
"s c #FCF200",
"d c #3D3B00",
"f c #FFF800",
"g c #FCF600",
"h c #D5CE00",
"j c #928A00",
"k c #908900",
"l c #232100",
"z c #E0D500",
"x c #555000",
"c c #968E00",
"v c #F0E400",
"b c #C1B700",
"n c white",
/* pixels */
" .XXXXXXXXXXXXXXXXXXXXXXXXXXXXXXXXXXXX. ",
".oOOOOOOOOOOOO+@@+OOOOOOOOOOOOOOOOOOOOo.",
"XO#########$#%&**&=-##################OX",
"XO###########;:>>,<1%#################OX",
"XO#########@2 >>>>34@#################OX",
"XO#########@43>>>>56%#################OX",
"XO#########=78>33>90$#################OX",
"XO#########$@qw44we=##################OX",
"XO##########$=@@@@=$##################OX",
"XO####################################OX",
"XO####################################r.",
"XO###################################tyu",
"XO###################################ip>",
"XO###################################@&a",
"XO###################################$sd",
"XO####################################OX",
"XO####################################OX",
"XO####################################OX",
"XO####################################OX",
"XO####################################OX",
"XO##############$%ffffffffffffffffffffgd",
"XO#############$thjjjjjjjjjjjjjjjjjjjjkl",
"XO#############%z.xcjjjjjjjjjjjjjjjjjjkl",
"XO##############vbq0ffffffffffffffffffgd",
"XO#############$#@=$##################OX",
"XO####################################OX",
"XO####################################OX",
"XO####################################OX",
"XO####################################OX",
"XO####################################OX",
"XO####################################OX",
"XO####################################OX",
"XO####################################OX",
"XO####################################OX",
"XO####################################OX",
"XO####################################OX",
"XO####################################OX",
"XO####################################OX",
".oOOOOOOOOOOOOOOOOOOOOOOOOOOOOOOOOOOOOo.",
" .XXXXXXXXXXXXXXXXXXXXXXXXXXXXXXXXXXXX. "
};
