/* XPM */
static char *d2abeb2046334d64f4313f855f553750Xsel0t2oIQc9bvon[] = {
/* columns rows colors chars-per-pixel */
"50 50 2 1 ",
"  c black",
". c #FFF200",
/* pixels */
"                                                  ",
" ................................................ ",
" ................................................ ",
" .................    ........................... ",
" ................       ......................... ",
" ...............        ......................... ",
" ...............        ......................... ",
" ...............       .......................... ",
" ................      .......................... ",
" ................................................ ",
" ................................................ ",
" ................................................ ",
" ................................................ ",
" ................................................ ",
" ...............................................  ",
" ...............................................  ",
" ...............................................  ",
" ................................................ ",
" ................................................ ",
" ................................................ ",
" ................................................ ",
" ................................................ ",
" ................................................ ",
" ................................................ ",
" ................................................ ",
" ................................................ ",
" ................................................ ",
" .....................                            ",
" ....................  .......................... ",
" ................................................ ",
" ................................................ ",
" ................................................ ",
" ................................................ ",
" ................................................ ",
" ................................................ ",
" ................................................ ",
" ................................................ ",
" ................................................ ",
" ................................................ ",
" ................................................ ",
" ................................................ ",
" ................................................ ",
" ................................................ ",
" ................................................ ",
" ................................................ ",
" ................................................ ",
" ................................................ ",
" ................................................ ",
" ................................................ ",
"                                                  "
};
