/* XPM */
static char *wall1714838484[] = {
/* columns rows colors chars-per-pixel */
"64 64 31 1 ",
"  c #150E0F",
". c #160F10",
"X c #171011",
"o c #1A1215",
"O c #1D1519",
"+ c #22151E",
"@ c #241C1D",
"# c #26211B",
"$ c #28231F",
"% c #251B23",
"& c #272120",
"* c #292422",
"= c #2D2825",
"- c #2D262E",
"; c #2D282D",
": c #2E2631",
"> c #2F2A31",
", c #312C36",
"< c #322E39",
"1 c #36323C",
"2 c #38343F",
"3 c #373440",
"4 c #393643",
"5 c #3C3947",
"6 c #3E3B48",
"7 c #413D46",
"8 c #423F49",
"9 c #46434B",
"0 c #48454E",
"q c #4A4751",
"w c #4D4A53",
/* pixels */
",,,1qwwwwwwq55550wwwwwww6556qwwwwwww6556qwwwwwwq75555554<,,>%+++",
",,,<qwwwwwwq5558wwwwwwww6556qwwwwwwq6556wwwwwwwq75555654<,<;%O++",
",,,1qwwwwwwq5555qwwwwwww6555qwwwwwwq6556qwwwwwwq65554654<,<;%+++",
",,,<8wqqwqq055560000wwww6555qqqqwqq942249099wqq054444443<<<,%+++",
",,,<47851<<355541112qwwq65546665111<=***====111<<<<<,<<<4443%O++",
",<,<4554<,,<4554<,><qwwq64555554,,,>$######$>>,,,,,,,,,<4553-+%+",
",<,<4554<,,<4554,>,<qwwq66555553,,,>$######&>,>,,,,>,,,<4553%+++",
",,,,45541<<345541<,10wqq42244452,;>;$###$&**,<<<,<,1,<<<4553%+O+",
",,,,45558q00455545446654;***><<>$$$$###$;>>,4445545444545453O...",
",,,<4558qwwq755455555543*###>,,>$######$>>,<5555555555555553O. .",
",,<<4547qwwq555545555554*$#*><<>$######*>>,<4556555565555553o ..",
"<<<<4544qqqq544455554453*$#;><<>$*$$&*&=,<,1444455554243445<o . ",
"4444<,<<5555<<<<4554<<><233344544222>>><4544<<<<4554=*$*,<,:o...",
"5554<,,<5554<,,<4555<,,<4556555555541>>>4554<>><3552$##$:,,:o...",
"5554<,,<4554,,,,4554<,<<455555555554<>114654<>,<4552*#%*:,,:o . ",
"5554,::,3333,,,,3443<,><455524445554>>>>4654<<<<4553*$**>,,:X ..",
"5554=$$$***;>,,,<<<<<,><5554;**;4552*$**354543445554<>>>><<:o...",
"5553*@#####*>,,,,>,>><,<4553*##*4552*##*355565555555<>><<>>-o...",
"5554*#$####*>,,,<<,<,<,<4554*##*2564*$#*456555655555<<<><<<:.   ",
"434<*####$$*,,,,>>>>>>:,1221*#$*4441*##*133354543221<><<>>>-o...",
"*$*$###$;;,>,,,,*$$$****$$$*-,>,,<<,*###*$**1,1>****>>>>*$$$%+++",
"#####$#$,,,,,,,;$###@######$,,,,,>,>#######*>,>>$##$><<>$##@O%++",
"#######$,,,,,,,>$#########@$;,,,,,,>*###$##$>,,;$##$><>>$##@++++",
"$#####@#;;>;>>;;$###@#@@###$,,,,>>>;##@####$;>>=*@#@;>>;$@@++++O",
"##$#++++%%+%########++++#$#$>,,,*$&#O%O%####$$##++++#$$$@+++o...",
"###@++++++++########++++@##$>,,;$##@%+++@######@+++@@##@+++O    ",
"##$@++++++++##$#####+++@###$,,,:$###+%++###@####@+++@$##++++. ..",
"###@++++++++@#@@####+%++@##$-:,-####++++@@@@@@#@++++@#@@+++O.  .",
"@@++++++ . ....o+++++++++@+++%%%+++++++OXXXXXXXX+++++@++....  ..",
"+++%++++.      .O++++%+%++%+++++++++++%+.       ++++++%O. .  ...",
"+++++%++.      .++++++++++++++++%++++++O.       +%++@+++...     ",
"%%%%%%%%OOOOOOOO%%%%%%%%%%%%++++++++%%%%OoooOOOO%%%%%%%%OooooOOO",
"999944448080008844343434334<%++++@#$->>>331379999090099933337999",
"wwwq5547qwwwwwwq755555555573%+%+###$;,,<4555wwwwwwwwwwww6456wwww",
"wwww5575qwwwwwwq745555555553%+++####:<><4555wwwwwwwwwwwq5556wwww",
"000944220qqq00q8555544445542%+++###$,<<<44450qqqqqqwwwwq65559000",
"111,=**-77751<114555<<<<4553%%++##$*1444<<<<56666666wwww65541111",
",,,>$##$2454,,,<4554<,,<4553%+++###*1554<,,<55545556qwwq5554<>,>",
",,,>*#@*3554,,,<4555<,<<4553%+++##@*4554<,><45555555qwww6554<,<>",
">>>;****45543<<35554<<<<4553%O++$$*=3554<<<1557555550qw05444<>,<",
"$$$$;,;,45558q8q555545445553O. o->;,455554550wq055556665<<<,,,,<",
"#$#$;,,,4555wwwq755555555553O  o-,,<45555555qwwq65555554<,,,,,,,",
"###$>,,,4557qwwq655555555553O  o;,,<45555556qwwq65555554<,,,,,,,",
"$$$*,<,14445qqqq54445555445<O  o,<1155755445qqw055554444<<<<<<<<",
"14334553<<,<5574<,<<4555<<<,X  o700ww0w01,,<55555554<<,<45444445",
"55555554,,,<4554<,,<4554,,,%o  O9wwwwww01,,145545564<,,<45556555",
"55555554<,,<4554<,,<4554<,,:o. O9wwwwww01,,,55555554<,,<45555565",
"55554443<,,<3443,::,3444<,,-o. O90wqwwwq1,,<44444444,::<45554444",
"5555<,<,,,<,<<<>=#$$,<,<,,,;o  o4559wwwq4443<,,,<,<,*$$=35551<<<",
"5554<,,,,,<>>,<>$##$>,,,,,,;o  o1555qwwq7554<,,,,,,>$##*3553>><>",
"5554<,,,,<,<,,,>$##$>,,,,,,:o  o3555qwwq7574<,,,,,,,$##*4555<,><",
"4544<,,,>>>>>>,-$##$>,<,,;,-O..+3545qwq05443,,,,>,>:$##*1232<,><",
"<<<,,,,>*$$$**#*###$>,,,*$$$+++%45455765<<<<,,,>*&&&++++****><<>",
",,,,,,,>$#####@#$##$,,,:$@##+++%35554555<<<>,<,,&&##++%+####>>,<",
",,,,,,,>$#$#####$##$:,,:$###@++%44555554<<<:,,,>&###+%++@##*><<>",
">>>>;>>-$###@#@#@@#@;::-$@@@+++%<4443331>:>::;;-&#@#@O%O####->>>",
"$$$#@@+@###@@+++++++%%++++++++++**$$%%%%++@%+%++++++@#######$$$$",
"###@++++@###++++++++++++++++++++@$$@@+++++++++++++++@####$######",
"###@+%++###@+++++++++++++%%+%+++###@++%+++++++++++++@##$########",
"##@@++++@##@++++O+++++++++++++%+###@++O++++++++++@+@@#@@########",
"@+@+o..o++@+............++++++++++++X...........  ..+++++@+++@++",
"++++.  .++++.     . ....++++%+++++++.     .        .+%++%+++++++",
"++++.  .++++. .... ... .++++++++++++X ... . ...... .++++++++++++",
"+++O.   ++++.  . ..... .+++%++%+++++.  .. ..........+++%++%+++%+"
};
