/* XPM */
static char *_c857fc922234682991448601ea33feeAleSWi4trw8RlpD5[] = {
/* columns rows colors chars-per-pixel */
"90 90 135 2 ",
"   c #150E0F",
".  c #160F10",
"X  c #171012",
"o  c #1A1215",
"O  c #1E1419",
"+  c #23161F",
"@  c #241B1D",
"#  c #27221C",
"$  c #28231E",
"%  c #241720",
"&  c #251A23",
"*  c #281E27",
"=  c #262027",
"-  c #292422",
";  c #2C2827",
":  c #2C262B",
">  c #2E292D",
",  c #2D2630",
"<  c #2F2A32",
"1  c #312C36",
"2  c #322E38",
"3  c #332F38",
"4  c #332E39",
"5  c #332F3A",
"6  c #322D38",
"7  c #342F3A",
"8  c #342F3B",
"9  c #332E39",
"0  c #333036",
"q  c #343036",
"w  c #353139",
"e  c #35323A",
"r  c #35323B",
"t  c #36323B",
"y  c #34303C",
"u  c #35303C",
"i  c #35313C",
"p  c #35313D",
"a  c #36323E",
"s  c #37333E",
"d  c #37333F",
"f  c #37343E",
"g  c #36323D",
"h  c #38343E",
"j  c #38343F",
"k  c #39353F",
"l  c #38343E",
"z  c #3C383C",
"x  c #3F3B3E",
"c  c #373340",
"v  c #373440",
"b  c #373441",
"n  c #373440",
"m  c #383440",
"M  c #383540",
"N  c #383441",
"B  c #393641",
"V  c #393442",
"C  c #383542",
"Z  c #393542",
"A  c #393543",
"S  c #393642",
"D  c #393643",
"F  c #3A3643",
"G  c #3A3743",
"H  c #3C3741",
"J  c #3A3644",
"K  c #3A3744",
"L  c #3B3744",
"P  c #3A3745",
"I  c #3B3745",
"U  c #393643",
"Y  c #3B3841",
"T  c #3D3941",
"R  c #3F3C40",
"E  c #3B3844",
"W  c #3B3845",
"Q  c #3B3846",
"!  c #3B3847",
"~  c #3B3947",
"^  c #3D3944",
"/  c #3C3946",
"(  c #3C3947",
")  c #3D3A46",
"_  c #3D3A47",
"`  c #3F3C47",
"'  c #3C3947",
"]  c #3C3948",
"[  c #3F3C49",
"{  c #3F3C49",
"}  c #403C47",
"|  c #403C46",
" . c #403D49",
".. c #413D49",
"X. c #413E48",
"o. c #423F48",
"O. c #433F48",
"+. c #433F49",
"@. c #403D4A",
"#. c #413E4A",
"$. c #413E4B",
"%. c #433F4A",
"&. c #423F4B",
"*. c #413E4A",
"=. c #44404A",
"-. c #45424B",
";. c #46424B",
":. c #45424D",
">. c #47434C",
",. c #46424D",
"<. c #46434D",
"1. c #46434E",
"2. c #47444F",
"3. c #45424D",
"4. c #48444C",
"5. c #48444D",
"6. c #48454D",
"7. c #48454E",
"8. c #49454E",
"9. c #48454F",
"0. c #48444D",
"q. c #484550",
"w. c #494650",
"e. c #494651",
"r. c #4A4751",
"t. c #4A4751",
"y. c #4B4851",
"u. c #4B4852",
"i. c #4C4953",
"p. c #4D4A53",
"a. c #4E4B54",
"s. c #4E4B55",
"d. c #4E4C54",
"f. c #4F4C55",
"g. c #4E4B54",
/* pixels */
"1 1 1 1 1 H a.a.a.a.a.a.a.a.a.a.w.( ! ( ( ! ,.a.a.a.a.a.a.a.a.a.a.w.( ( ( ( ! 2.a.a.a.a.a.a.a.a.a.a.2.! ( ( ( ( w.a.a.a.a.a.a.a.a.a.a.,.! ( ( ( ( ( ( ( ( ( D 1 1 1 1 1 * + + + + + ",
"1 1 1 1 1 H a.a.a.a.a.a.a.a.a.a.w.( ! ( ( ! ,.a.a.a.a.a.a.a.a.a.a.w.( ( ( ( ! 2.a.a.a.a.a.a.a.a.a.a.2.! ( ( ( ( w.a.a.a.a.a.a.a.a.a.a.,.! ( ( ( ( ( ( ( ( ( D 1 1 1 1 1 * + + + + + ",
"1 1 1 1 1 H a.a.a.a.a.a.a.a.a.a.w.( ! ( ( ! ,.a.a.a.a.a.a.a.a.a.a.w.( ( ( ( ! 2.a.a.a.a.a.a.a.a.a.a.2.! ( ( ( ( w.a.a.a.a.a.a.a.a.a.a.,.! ( ( ( ( ( ( ( ( ( D 1 1 1 1 1 * + + + + + ",
"1 1 1 1 1 H a.a.a.a.a.a.a.a.a.a.w.( ! ( ( ! ,.a.a.a.a.a.a.a.a.a.a.w.( ( ( ( ! 2.a.a.a.a.a.a.a.a.a.a.2.! ( ( ( ( w.a.a.a.a.a.a.a.a.a.a.,.! ( ( ( ( ( ( ( ( ( D 1 1 1 1 1 * + + + + + ",
"1 1 1 1 1 H a.a.a.a.a.a.a.a.a.a.y.( ! ( ( ! ,.d.a.a.a.a.a.p.a.a.a.w.( ( ( ( ! 2.a.a.a.a.a.a.a.a.a.d.2.( ( ( ( ( w.d.a.a.a.a.a.a.a.a.a.,.! ( ( ( ( ( ( ( ( ( D 1 1 1 1 1 * + + + + + ",
"1 1 1 1 1 k 2.2.2.2.2.=.o.o.o.o.o.( ! ( ( ! ` o.o.o.o.o.y.a.a.a.a.w.( ( ( ( ! o.2.2.2.2.,.o.o.o.o.o.T 0 q q q q x x x x x R o.o.o.o.o.( c v v v v v v v v v u u u u u u : + + + + + ",
"1 1 1 1 1 u ! ! ! ! ! 5 1 1 1 1 5 ! ( ( ( ( u 1 1 1 1 1 7.a.a.a.a.w.( ( ( ( ( ! ! ! ! ! J 1 1 1 1 1 ; # # # # # # # # # # - 1 1 1 1 1 1 1 1 1 1 1 1 1 1 1 1 5 ( ( ( ( ( : + + + + + ",
"1 1 1 1 1 u ( ( ( ( ! 7 1 1 1 1 5 ! ( ( ( ( u 1 1 1 1 1 7.a.a.a.a.w.( ( ( ( ( ( ( ( ( ( J 1 1 1 1 1 > # # # # # # # # # # - 1 1 1 1 1 1 1 1 1 1 1 1 1 1 1 1 7 ! ( ( ( ( : + + + + + ",
"1 1 1 1 1 u ( ( ( ( ! 7 1 1 1 1 5 ! ( ( ( ( u 1 1 1 1 1 7.a.a.a.a.w.( ( ( ( ( ( ( ( ( ( J 1 1 1 1 1 > # # # # # # # # # # - 1 1 1 1 1 1 1 1 1 1 1 1 1 1 1 1 7 ! ( ( ( ( : + + + + + ",
"1 1 1 1 1 u ( ( ( ( ! 7 1 1 1 1 5 ! ( ( ( ( u 1 1 1 1 1 7.a.a.a.a.w.( ( ( ( ( ( ( ( ( ( J 1 1 1 1 1 > # # # # # # # # # # - 1 1 1 1 1 1 1 1 1 1 1 1 1 1 1 1 7 ! ( ( ( ( : + + + + + ",
"1 1 1 1 1 u ( ( ( ( ! 7 1 1 1 1 5 ! ( ( ( ( u 1 1 1 1 1 7.a.p.p.a.w.! ! ! ! ! ! ! ! ! ( J 1 1 1 1 1 ; # # # # # # # # # # - 1 1 1 1 1 1 1 1 1 1 1 1 1 1 1 1 7 ! ( ( ( ( : + + + + + ",
"1 1 1 1 1 u ( ( ( ( ( o.=.=.=.=.=.( ! ( ( ( J D D D D D [ o.o.o.o.Y ; ; ; ; ; 1 7 7 7 7 5 - - - - - - # # # # # ; > > > > 1 D D D D D D D D D D D D D D D D D ! ( ( ( ( = X X X o o ",
"1 1 1 1 1 u ( ( ( ( ( w.a.a.a.a.y.( ! ( ( ! ( ( ( ( ( ( ! ! ! ! ( r # # # # # ; 1 1 1 1 < # # # # # # # # # # # > 1 1 1 1 5 ! ( ( ( ( ( ( ( ( ( ( ( ( ( ( ( ( ( ( ( ( ( *           ",
"1 1 1 1 1 u ( ( ( ( ( w.a.a.a.a.w.( ! ( ( ( ( ( ( ( ( ( ( ( ( ( ( r # # # # # > 1 1 1 1 < $ # # # # # # # # # # > 1 1 1 1 5 ! ( ( ( ( ( ( ( ( ( ( ( ( ( ( ( ( ( ( ( ( ( *   . . . . ",
"1 1 1 1 1 u ( ( ( ( ( w.a.a.a.a.w.( ! ( ( ( ( ( ( ( ( ( ( ( ( ( ( r # # # # # > 1 1 1 1 < $ # # # # # # # # # # > 1 1 1 1 5 ! ( ( ( ( ( ( ( ( ( ( ( ( ( ( ( ( ( ( ( ( ( *   . . . . ",
"1 1 1 1 1 u ( ( ( ( ( w.a.a.a.a.w.( ( ( ( ( ( ! ( ( ( ( ( ( ( ( ] r # # # # # ; 1 1 1 1 < # # # # # # # # # # # > 1 1 1 1 5 ! ( ( ( ( ( ! ( ( ( ( ( ( ( ( ( ( ( ( ( ( ( *   . . . . ",
"5 5 5 5 5 u J D D D D ,.y.w.w.w.2.J D D D D J ( ( ( ( ! J D D D J r - - - - - < 5 5 5 5 1 - - - - - - - - - - - 1 5 5 5 1 7 D D D D D J ( ( ( ( ! D k k k k D D D D D J &   X X . . ",
"! ! ! ! ! c 1 1 1 1 1 D ( ( ( ( J 1 1 1 1 1 u ( ( ( ( ! 5 1 1 1 1 7 J J J J J ! ! ! ! ! ! ! J J J ! u 1 1 1 1 1 D ! ! ! ! D 1 1 1 1 1 u ( ( ( ( ! - # # # # - 1 1 1 1 1 +   . X . . ",
"( ( ( ( ( v 1 1 1 1 1 D ( ! ! ( D 1 1 1 1 1 u ( ( ( ( ! 5 1 1 1 1 7 ! ( ( ( ( ( ( ( ( ( ( ( ( ( ( ( v 1 1 1 1 1 D ( ( ( ( D 1 1 1 1 1 u ( ( ( ( J - # # # # - 1 1 1 1 1 +   . X . . ",
"( ( ( ( ( v 1 1 1 1 1 D ( ( ( ( D 1 1 1 1 1 u ( ( ( ( ! 5 1 1 1 1 7 ! ( ( ( ( ( ( ( ( ( ( ( ( ( ( ( v 1 1 1 1 1 D ( ( ( ( D 1 1 1 1 1 u ( ( ( ( J - # # # # - 1 1 1 1 1 +   . . . . ",
"( ( ( ( ( v 1 1 1 1 1 D ( ( ( ( D 1 1 1 1 1 u ( ( ( ( ! 5 1 1 1 1 7 ! ( ( ( ( ( ( ( ( ( ( ( ( ( ( ( v 1 1 1 1 1 D ( ( ( ( D 1 1 1 1 1 u ( ( ( ( J - # # # # - 1 1 1 1 1 +   . . . . ",
"( ( ( ( ( v 1 1 1 1 1 D ] ( ( ] J 1 1 1 1 1 u ( ( ( ( ! 5 1 1 1 1 7 ! ( ( ( ! ( ( ( ( ( ( ( ! ( ( ( v 1 1 1 1 1 D ( ( ( ( D 1 1 1 1 1 u ( ( ( ( J - # # # # - 1 1 1 1 1 +   . . . . ",
"( ( ( ( ( r ; ; ; ; ; > 1 1 1 1 1 1 1 1 1 1 5 u u u u u 1 1 1 1 1 7 ! ( ( ( ( r 1 1 1 1 1 J ( ( ( ( r ; ; ; ; ; f ( ( ( ( J u u u u u D ( ( ( ( ! > ; ; ; ; > 1 1 1 1 1 +   . . . . ",
"( ( ( ( ( 0 # # # # # # # # # # - 1 1 1 1 1 1 1 1 1 1 1 1 1 1 1 1 7 ! ( ( ( ( ; # # # # $ D ( ( ( ( 0 # # # # # r ( ( ( ! ( ( ( ( ( ( ( ! ( ( ( ! 5 1 1 1 1 1 1 1 1 1 1 +   . . . . ",
"( ( ( ( ( q # # # # # # # # # # - 1 1 1 1 1 1 1 1 1 1 1 1 1 1 1 1 7 ! ( ( ( ( > # # # # - D ( ( ( ( q # # # # # r ( ( ( ( ( ( ( ( ( ( ( ( ( ( ( ! 5 1 1 1 1 1 1 1 1 1 1 +   . . . . ",
"( ( ( ( ( q # # # # # # # # # # - 1 1 1 1 1 1 1 1 1 1 1 1 1 1 1 1 7 ! ( ( ( ( > # # # # - D ( ( ( ( q # # # # # r ( ( ( ( ( ( ( ( ( ( ( ( ( ( ( ! 5 1 1 1 1 1 1 1 1 1 1 +   . . . . ",
"( ( ( ( ( q # # # # # # # # # # - 1 1 1 1 1 1 1 1 1 1 1 1 1 1 1 1 7 ! ( ( ( ( > # # # # - D ( ( ( ( q # # # # # r ( ( ( ( ( ( ( ( ( ( ( ( ( ( ( ! 5 1 1 1 1 1 1 1 1 1 1 +           ",
"J J J J ! 1 # # # # # # # # # # - 1 1 1 1 1 1 1 1 1 1 1 1 1 1 1 1 5 J J J J ! > # # # # - D ! ! ! ! 1 # # # # # r ! J J J ! ! ! ! ! ! ! J J J J J 5 1 1 1 1 1 1 1 1 1 1 +   . . . . ",
"- - - - - - # # # # # ; < < < < < 1 1 1 1 1 ; - - - - - - - - - - - - - - - - > < < < < < 5 5 5 5 5 > # # # # # - - - - - ; 5 5 5 5 5 > - - - - - < 1 1 1 1 < - - - - - + + + + + + ",
"# # # # # # # # # # # > 1 1 1 1 1 1 1 1 1 1 ; # # # # # # # # # # # # # # # # > 1 1 1 1 1 1 1 1 1 1 ; # # # # # # # # # # - 1 1 1 1 1 ; # # # # # < 1 1 1 1 > # # # # # @ + + + + + ",
"# # # # # # # # # # # > 1 1 1 1 1 1 1 1 1 1 ; # # # # # # # # # # # # # # # # > 1 1 1 1 1 1 1 1 1 1 > # # # # # # # # # # - 1 1 1 1 1 ; # # # # # < 1 1 1 1 > # # # # # + + + + + + ",
"# # # # # # # # # # # > 1 1 1 1 1 1 1 1 1 1 ; # # # # # # # # # # # # # # # # > 1 1 1 1 1 1 1 1 1 1 > # # # # # # # # # # - 1 1 1 1 1 ; # # # # # < 1 1 1 1 > # # # # # @ + + + + + ",
"# # # # # # # # # # # > 1 1 1 1 1 1 1 1 1 1 ; # # # # # # # # # # # # # # # # > 1 1 1 1 1 1 1 1 1 1 > # # # # # # # # # # - 1 1 1 1 1 ; # # # # # < 1 1 1 1 > # # # # # @ + + + + + ",
"# # # # # # @ @ @ @ @ : , : : : : > > > > > - # # # # # @ @ @ @ @ @ # # # # # > 1 1 1 1 1 > > > > > - @ @ @ @ @ # # # # # $ > > > > > = @ @ @ @ @ ; > > > > ; @ @ @ @ @ @ O O O O O ",
"# # # # # @ + + + + + + + + + + + # # # # # # # # # # # + + + + + @ # # # # # > 1 1 1 1 < $ # # # # @ + + + + + @ # # # # # # # # # # @ + + + + + @ # # # # @ + + + + + o   . . . . ",
"# # # # # @ + + + + + + + + + + + # # # # # # # # # # # + + + + + @ # # # # # > 1 1 1 1 < $ # # # # @ + + + + + @ # # # # # # # # # # @ + + + + + # # # # # @ + + + + + o   . . . . ",
"# # # # # @ + + + + + + + + + + + # # # # # # # # # # # + + + + + @ # # # # # > 1 1 1 1 < $ # # # # @ + + + + + @ # # # # # # # # # # @ + + + + + @ # # # # @ + + + + + o   . . . . ",
"# # # # # @ + + + + + + + + + + + # # # # # # # # # # # + + + + + @ # # # # # > 1 1 1 1 < $ # # # # @ + + + + + @ # # # # # # # # # # @ + + + + + @ # # # # @ + + + + + o   . . . . ",
"# # # # # @ + + + + + + + + + + + # # # # # # # # # # # + + + + + @ # # # # # > 1 1 1 1 1 $ # # # # @ + + + + + @ # # # # # # # # # # @ + + + + + @ # # # # @ + + + + + o   . . . . ",
"@ @ @ @ @ + + + + + + O o o o o o o o o o o @ @ @ @ @ @ + + + + + + @ @ @ @ @ & * * * * * @ @ @ @ @ + + + + + + o o o o o o o o o o o O + + + + + @ @ @ @ @ @ o o o o o X   . . . . ",
"+ + + + + + + + + + + X                     o + + + + + + + + + + + + + + + + + + + + + + + + + + + + + + + + + X                     o + + + + + + + + + + O             . . . . . ",
"+ + + + + + + + + + + o   . . . . . . . .   o + + + + + + + + + + + + + + + + + + + + + + + + + + + + + + + + + o   . X . . . . . .   o + + + + + + + + + + O . . . . . . . . . . . ",
"+ + + + + + + + + + + o   . . . . . X X .   o + + + + + + + + + + + + + + + + + + + + + + + + + + + + + + + + + o   X X . . . . . .   o + + + + + + + + + + O . . . . . . . . . . . ",
"+ + + + + + + + + + + X                     o + + + + + + + + + + + + + + + + + + + + + + + + + + + + + + + + + X                     o + + + + + + + + + + O                       ",
"& & & & & & & & & & & O o o o o o o o o o o + & & & & & & & & & & & & & & & & % + + + + + + + + + + + & & & & & O o o o o o o o o o o + & & & & & & & & & & % o o o o o o o o o o o ",
"7.7.7.7.7.o.D D D D D =.7.7.7.7.7.7.7.7.7.7.} D D D D D D D D D D D D D D D D : + + + + + @ # # # # - < < < < < u D v v v D ,.7.7.7.7.7.7.7.7.7.7.7.7.7.7.7.=.D v v v v o.7.7.7.7.7.",
"a.a.a.a.a.2.! ( ( ( ( w.a.a.a.a.a.a.a.a.a.a.,.! ( ( ( ( ( ( ( ( ( ( ( ( ( ( ( : + + + + + # # # # # - 1 1 1 1 1 D ( ( ( ( [ p.a.a.a.a.a.a.a.a.a.a.a.a.a.a.a.w.( ( ( ( ( 2.a.a.a.a.a.",
"a.a.a.a.a.2.! ( ( ( ( w.a.a.a.a.a.a.a.a.a.a.,.! ( ( ( ( ( ( ( ( ( ( ( ( ( ( ( : + + + + + # # # # # - 1 1 1 1 1 D ( ( ( ! [ p.a.a.a.a.a.a.a.a.a.a.a.a.a.a.a.w.( ( ( ( ! 2.a.a.a.a.a.",
"a.a.a.a.a.2.! ( ( ( ( w.a.a.a.a.a.a.a.a.a.a.,.! ( ( ( ( ( ( ( ( ( ( ( ( ( ( ( : + + + + + # # # # # - 1 1 1 1 1 D ( ( ( ! [ p.a.a.a.a.a.a.a.a.a.a.a.a.a.a.a.w.( ( ( ( ! 2.a.a.a.a.a.",
"a.a.a.a.d.2.( ( ( ( ( w.a.a.a.a.a.a.a.a.a.d.,.! ( ( ( ( ( ( ( ( ( ( ( ( ( ( ( : + + + + + # # # # # - 1 1 1 1 1 D ( ( ( ! [ p.a.a.a.a.a.a.a.a.a.a.a.p.a.a.a.w.( ( ( ( ! 2.d.a.a.a.a.",
"o.o.o.o.o.T 0 q q q q o.2.2.2.2.,.o.o.o.o.o.` ! ( ( ( ! D c v v c D ! ( ( ] ( : + + + + + # # # # # ; u u u u u u v v v c D ,.2.2.2.2.2.2.2.2.2.2.p.a.a.a.a.w.( ( ( ( ! } o.o.o.o.o.",
"1 1 1 1 1 ; # # # # # r ( ! ! ! D 1 1 1 1 1 u ( ( ( ( ! 5 1 1 1 1 5 ! ( ] ] ( : + + + + + # # # # # > ( ( ( ( ( 5 1 1 1 1 5 ! ! ! ! ! ! ! ! ! ! ( w.a.a.a.a.w.( ( ( ( ( u 1 1 1 1 1 ",
"1 1 1 1 1 > # # # # # r ( ( ( ( D 1 1 1 1 1 u ( ( ( ( ! 5 1 1 1 1 7 ! ( ( ( ( : + + + + + # # # # # > ( ( ( ( ! 7 1 1 1 1 5 ! ( ( ( ( ( ( ( ( ! ( w.a.a.a.a.w.( ( ( ( ( u 1 1 1 1 1 ",
"1 1 1 1 1 > # # # # # r ( ( ( ( D 1 1 1 1 1 u ( ( ( ( ! 5 1 1 1 1 7 ! ( ( ( ( : + + + + + # # # # # > ( ( ( ( ! 7 1 1 1 1 5 ! ( ( ( ( ( ( ( ( ! ( w.a.a.a.a.w.( ( ( ( ( u 1 1 1 1 1 ",
"1 1 1 1 1 > # # # # # r ( ( ( ( D 1 1 1 1 1 u ( ( ( ( ! 5 1 1 1 1 7 ! ( ( ( ( : + + + + + # # # # # > ( ( ( ( ! 7 1 1 1 1 5 ! ( ( ( ( ( ( ( ( ! ( w.a.a.a.a.w.( ( ( ( ( u 1 1 1 1 1 ",
"1 1 1 1 1 > # # # # # r ( ( ( ( D 1 1 1 1 1 u ( ( ( ( ! 5 1 1 1 1 7 ! ( ( ( ( : + + + + + # # # # # > ( ( ( ( ! 7 1 1 1 1 5 ! ( ( ( ( ( ! ( ( ! ( w.a.p.p.a.w.( ! ! ! ( u 1 1 1 1 1 ",
"- - - - - - > > > > > D ( ( ( ! ( =.=.=.=.=.o.! ( ( ( ! D D D D D D ! ( ( ( ( = X o o X o : > > > > 5 ( ( ( ( ! D D D D D ! 7.w.w.w.w.o.! ( ( ! ( o.o.o.o.o.( 7 7 7 7 7 1 1 1 1 1 1 ",
"# # # # # - 1 1 1 1 1 D ( ( ( ! [ p.a.a.a.a.,.! ( ( ( ( ( ( ( ( ( ( ( ( ( ( ( *         X < 1 1 1 1 u ( ( ( ( ( ( ( ( ( ! [ p.a.a.a.a.,.! ( ( ( ! ! ! ! ! ! D 1 1 1 1 1 1 1 1 1 1 1 ",
"# # # # # - 1 1 1 1 1 D ( ( ( ! [ p.a.a.a.a.,.! ( ( ( ( ( ( ( ( ( ( ( ( ( ( ( *   . .   o < 1 1 1 1 u ( ( ( ( ( ( ( ( ( ! [ p.a.a.a.a.,.! ( ( ( ( ( ( ( ( ( D 1 1 1 1 1 1 1 1 1 1 1 ",
"# # # # # - 1 1 1 1 1 D ( ( ( ! [ p.a.a.a.a.,.! ( ( ( ( ( ( ( ( ( ( ( ( ( ( ( *   . .   o < 1 1 1 1 u ( ( ( ( ( ( ( ( ( ! [ p.a.a.a.a.,.! ( ( ( ( ( ( ( ( ( D 1 1 1 1 1 1 1 1 1 1 1 ",
"# # # # # - 1 1 1 1 1 D ( ( ( ! [ p.a.a.a.a.,.! ( ( ( ( ( ( ( ( ! ( ( ! ( ( ( *   . .   X < 1 1 1 1 u ! ! ! ! ! ( ( ( ( ! [ p.a.a.a.a.,.! ( ( ( ( ( ( ( ( ( D 1 1 1 1 1 1 1 1 1 1 1 ",
"- - - - - ; 5 5 5 5 5 D J D D D ( w.w.w.w.y.o.D D D D J ! ( ( ( ( ! D D D D J &   . .   o 1 r r r r D [ [ [ [ [ ! D D D D ( w.w.w.w.w.=.! ( ( ( ! J D D D J D 5 5 5 5 5 5 5 5 5 5 5 ",
"J J J J J ! ! ! ! ! ! 7 1 1 1 1 5 ( ( ( ( ( u 1 1 1 1 1 J ( ( ( ( D 1 1 1 1 1 O   . .   o =.p.p.p.p.p.p.p.p.p.p.k 1 1 1 1 5 ( ( ( ( ( ( ! ( ( ( ! 5 1 1 1 1 7 ! ! ! ! ! ! ! ! ! ! ! ",
"( ( ( ( ( ( ( ( ( ( ! 7 1 1 1 1 5 ! ! ! ! ( u 1 1 1 1 1 D ( ( ( ( D 1 1 1 1 1 +   . .   o 7.a.a.a.a.a.a.a.a.a.p.k 1 1 1 1 5 ! ! ! ! ! ! ( ( ( ( ! 5 1 1 1 1 7 ! ( ( ( ( ( ( ( ( ( ( ",
"( ( ( ( ( ( ( ( ( ( ! 7 1 1 1 1 5 ! ( ( ( ( u 1 1 1 1 1 D ( ( ( ( D 1 1 1 1 1 +   . .   o 7.a.a.a.a.a.a.a.a.a.p.k 1 1 1 1 5 ! ( ( ( ( ( ( ( ( ( ! 5 1 1 1 1 7 ! ( ( ( ( ( ( ( ( ( ( ",
"( ( ( ( ( ( ( ( ( ( ! 7 1 1 1 1 5 ! ( ( ( ( u 1 1 1 1 1 D ( ( ( ( D 1 1 1 1 1 +   . X   o 7.a.a.a.a.a.a.a.a.a.p.k 1 1 1 1 5 ! ( ( ( ( ( ( ( ( ( ! 5 1 1 1 1 7 ! ( ( ( ( ( ( ( ( ( ( ",
"( ( ( ( ! ( ( ( ( ( ( 7 1 1 1 1 5 ! ( ( ( ( u 1 1 1 1 1 J ( ( ( ( D 1 1 1 1 1 +   . X   o 7.a.a.a.a.a.p.a.a.a.p.k 1 1 1 1 5 ! ( ( ( ( ( ( ( ( ( ! 5 1 1 1 1 7 ! ( ( ( ! ( ( ( ( ( ( ",
"( ( ( ( ( D u u u u u 5 1 1 1 1 1 u u u u u 1 ; ; ; ; ; r u u u u u 1 1 1 1 1 +   X X   o } ,.,.,.,.7.a.a.a.a.p.( u u u u u u u u u u u u u u u u ; - ; ; ; 1 ! ( ( ( ( D u u u u u ",
"( ( ( ( ( c 1 1 1 1 1 1 1 1 1 1 1 1 1 1 1 1 ; # # # # # < 1 1 1 1 1 1 1 1 1 1 +   . .   o v ! ! ! ! o.a.a.a.a.p.o.! ( ( ( J 1 1 1 1 1 1 1 1 1 1 1 - # # # # ; ! ( ( ( ( u 1 1 1 1 1 ",
"( ( ( ( ( v 1 1 1 1 1 1 1 1 1 1 1 1 1 1 1 1 ; # # # # # < 1 1 1 1 1 1 1 1 1 1 +   . .   o v ( ( ( ! o.a.a.a.a.p.o.! ( ( ( D 1 1 1 1 1 1 1 1 1 1 1 - # # # # ; ! ( ( ( ( u 1 1 1 1 1 ",
"( ( ( ( ( v 1 1 1 1 1 1 1 1 1 1 1 1 1 1 1 1 ; # # # # # < 1 1 1 1 1 1 1 1 1 1 +   . .   o v ( ( ( ! o.a.a.a.a.p.o.! ( ( ( D 1 1 1 1 1 1 1 1 1 1 1 - # # # # ; ! ( ( ( ( u 1 1 1 1 1 ",
"( ( ( ( ( v 1 1 1 1 1 1 1 1 1 1 1 1 1 1 1 1 ; # # # # # < 1 1 1 1 1 1 1 1 1 1 +         o v ( ( ( ! o.a.a.a.a.p.o.! ( ( ( D 1 1 1 1 1 1 1 1 1 1 1 - # # # # ; ! ( ( ( ( u 1 1 1 1 1 ",
"! ! ! ! ! c 1 1 1 1 1 1 1 1 1 1 1 1 1 1 1 1 ; # # # # # < 1 1 1 1 1 1 1 1 1 1 +   . . . o D ( ( ( ! o.p.p.p.p.p.o.! ! ! ! D 1 1 1 1 1 1 1 1 1 1 1 - # # # # ; J J J J ! r 1 1 1 1 1 ",
"5 5 5 5 5 5 1 1 1 1 1 - - - - - - - - - - - # # # # # # < 1 1 1 1 < - - - - $ + + + + + % D ( ( ( ! ( [ [ [ [ [ u 5 5 5 5 5 1 1 1 1 1 ; - - - - - @ + + + + @ - - - - - > 1 1 1 1 1 ",
"1 1 1 1 1 1 1 1 1 1 1 - # # # # # # # # # # # # # # # # < 1 1 1 1 > # # # # # @ + + + + & D ( ( ( ( ! ! ! ! ! ! 5 1 1 1 1 1 1 1 1 1 1 ; # # # # # + + + + + + # # # # # ; 1 1 1 1 1 ",
"1 1 1 1 1 1 1 1 1 1 1 - # # # # # # # # # # # # # # # # < 1 1 1 1 > # # # # # @ + + + + & D ( ( ( ( ( ( ( ( ( ! 7 1 1 1 1 1 1 1 1 1 1 ; # # # # # + + + + + @ # # # # # > 1 1 1 1 1 ",
"1 1 1 1 1 1 1 1 1 1 1 - # # # # # # # # # # # # # # # # < 1 1 1 1 > # # # # # @ + + + + & D ( ( ( ( ( ( ( ( ( ! 7 1 1 1 1 1 1 1 1 1 1 ; # # # # # + + + + + @ # # # # # > 1 1 1 1 1 ",
"1 1 1 1 1 1 1 1 1 1 1 - # # # # # # # # # # # # # # # # < 1 1 1 1 > # # # # # @ + + + + & D ] ( ( ( ( ( ( ( ( ( r 1 1 1 1 1 1 1 1 1 1 ; # # # # # + + + + + @ # # # # # > 1 1 1 1 1 ",
"> > > > > : : : : : : - # # # # # @ @ @ @ @ @ @ @ @ @ @ : : : : , : @ @ @ @ @ @ + + + + & 7 r r r r r 8 7 7 7 7 < : : : : , : : : : , = @ @ @ @ @ @ @ @ @ @ @ # # # # # - > > > > > ",
"# # # # # @ + + + + + @ # # # # @ + + + + + + + + + + + + + + + + + + + + + + + + + + + + # # # # # @ + + + + + + + + + + % + + + + + + + + + + + @ # # # # # # # # # # # # # # # # ",
"# # # # # @ + + + + + @ # # # # @ + + + + + + + + + + + + + + + + + + + + + + + + + + + + # # # # # @ + + + + + + + + + + + + + + + + + + + + + + @ # # # # # # # # # # # # # # # # ",
"# # # # # @ + + + + + @ # # # # @ + + + + + + + + + + + + + + + + + + + + + + + + + + + + # # # # # @ + + + + + + + + + + + + + + + + + + + + + + @ # # # # # # # # # # # # # # # # ",
"# # # # # @ + + + + + @ # # # # @ + + + + + + + + + + + + + + + + + + + + + + + + + + + + # # # # # @ + + + + + + + + + + + + + + + + + + + + + + @ # # # # # # # # # # # # # # # # ",
"# # # # # @ + + + + + @ # # # # # + + + + + + + + + + + + + + + + + + + + + + + + + + + + # # # # # @ + + + + + + + + + + + + + + + + + + + + + + @ # # # # # # # # # # # # # # # # ",
"@ @ @ @ @ + o o o o o @ @ @ @ @ + o o o o o o o o o o o o o o o o O + + + + + + + + + + + @ @ @ @ @ + o o o o o o o o o o o o o o o o o o o o o o + @ @ @ @ @ @ @ @ @ @ @ @ @ @ @ @ ",
"+ + + + + O           O + + + + + .                               X + + + + + + + + + + + + + + + + O                                           . + + + + + + + + + + + + + + + + + ",
"+ + + + + O   . . . . O + + + + + .   . . . . . . . . . . . . .   o + + + + + + + + + + + + + + + + O   . . . . . . . . . . . . . . . . . . .   . + + + + + + + + + + + + + + + + + ",
"+ + + + + O   . . . . O + + + + + .   . . . . . . . . . . . . .   o + + + + + + + + + + + + + + + + O   . . . . . . . . . . . . . . . . . . .   . + + + + + + + + + + + + + + + + + ",
"+ + + + + O   . . . . O + + + + + .   . . . . . . . . . . . . .   o + + + + + + + + + + + + + + + + O   . . . . . . . . . . . . . . . . . . .   . + + + + + + + + + + + + + + + + + ",
"+ + + + + O   . . . . O + + + + + .   . . . . . . . . . . . . .   o + + + + + + + + + + + + + + + + O   . . . . . . . . . . . . . . . . . . .   . + + + + + + + + + + + + + + + + + "
};
